<svg version="1.1" xmlns="http://www.w3.org/2000/svg" width="700" height="300"><defs><clipPath id="ANVxJZLDZzFU"><path fill="none" stroke="none" d="M 0.5 0.5 L 700.5 0.5 L 700.5 300.5 L 0.5 300.5 L 0.5 0.5 Z M 51.5 26.5 L 670.5 26.5 L 670.5 256.5 L 51.5 256.5 L 51.5 26.5 Z" clip-rule="evenodd"/></clipPath><clipPath id="GOWIzTeOBfXk"><path fill="none" stroke="none" d="M 51.5 26.5 L 670.5 26.5 L 670.5 256.5 L 51.5 256.5 L 51.5 26.5 Z"/></clipPath><clipPath id="sRrxIUvAfgTS"><path fill="none" stroke="none" d="M 51.5 26.5 L 670.5 26.5 L 670.5 256.5 L 51.5 256.5 L 51.5 26.5 Z"/></clipPath><clipPath id="StFKhJypFkaw"><path fill="none" stroke="none" d="M 51.5 26.5 L 670.5 26.5 L 670.5 256.5 L 51.5 256.5 L 51.5 26.5 Z"/></clipPath><clipPath id="amfbXokDxCUu"><path fill="none" stroke="none" d="M 51.5 26.5 L 670.5 26.5 L 670.5 256.5 L 51.5 256.5 L 51.5 26.5 Z"/></clipPath><clipPath id="zXbBogrULqGt"><path fill="none" stroke="none" d="M 51.5 26.5 L 670.5 26.5 L 670.5 256.5 L 51.5 256.5 L 51.5 26.5 Z"/></clipPath><clipPath id="kWuLMahMoasN"><path fill="none" stroke="none" d="M 51.5 26.5 L 670.5 26.5 L 670.5 256.5 L 51.5 256.5 L 51.5 26.5 Z"/></clipPath><clipPath id="ecsTfLFyGVFJ"><path fill="none" stroke="none" d="M 51.5 26.5 L 670.5 26.5 L 670.5 256.5 L 51.5 256.5 L 51.5 26.5 Z"/></clipPath><clipPath id="DkLDyvvBqJEL"><path fill="none" stroke="none" d="M 51.5 26.5 L 670.5 26.5 L 670.5 256.5 L 51.5 256.5 L 51.5 26.5 Z"/></clipPath><clipPath id="EKEFNesCETZy"><path fill="none" stroke="none" d="M 51.5 26.5 L 670.5 26.5 L 670.5 256.5 L 51.5 256.5 L 51.5 26.5 Z"/></clipPath><clipPath id="PQAuBqpTrlwP"><path fill="none" stroke="none" d="M 51.5 26.5 L 670.5 26.5 L 670.5 256.5 L 51.5 256.5 L 51.5 26.5 Z"/></clipPath><clipPath id="rqkcAAlKRJNX"><path fill="none" stroke="none" d="M 51.5 26.5 L 670.5 26.5 L 670.5 256.5 L 51.5 256.5 L 51.5 26.5 Z"/></clipPath></defs><path fill="#ffffff" stroke="none" paint-order="stroke" d="M 0.5 0.5 L 700.5 0.5 L 700.5 300.5 L 0.5 300.5 L 0.5 0.5 Z" clip-path="url(#ANVxJZLDZzFU)"/><path fill="#ffffff" stroke="none" paint-order="stroke" d="M 51.5 26.5 L 670.5 26.5 L 670.5 256.5 L 51.5 256.5 L 51.5 26.5 Z"/><path fill="none" stroke="#e5e5e5" paint-order="fill" d="M 51.5 26.5 L 670.5 26.5 L 670.5 256.5 L 51.5 256.5 L 51.5 26.5 Z" stroke-linejoin="bevel" stroke-miterlimit="10"/><path fill="none" stroke="#e5e5e5" paint-order="fill" d="M 103.5 256.5 L 103.5 26.5 M 206.5 256.5 L 206.5 26.5 M 309.5 256.5 L 309.5 26.5 M 412.5 256.5 L 412.5 26.5 M 515.5 256.5 L 515.5 26.5 M 618.5 256.5 L 618.5 26.5" stroke-linejoin="bevel" stroke-miterlimit="10" clip-path="url(#GOWIzTeOBfXk)"/><path fill="none" stroke="#e5e5e5" paint-order="fill" d="M 51.5 237.5 L 670.5 237.5 M 51.5 184.5 L 670.5 184.5 M 51.5 132.5 L 670.5 132.5 M 51.5 79.5 L 670.5 79.5 M 51.5 26.5 L 670.5 26.5" stroke-linejoin="bevel" stroke-miterlimit="10" clip-path="url(#sRrxIUvAfgTS)"/><path fill="rgb(0,0,0)" stroke="rgb(0,0,0)" paint-order="fill" d="M 104.11500251293182 106.62677764892578 A 1.03166663646698 1.03166663646698 0 0 1 102.05166923999786 106.62677764892578 A 1.03166663646698 1.03166663646698 0 0 1 104.11500251293182 106.62677764892578" fill-opacity="1" clip-path="url(#StFKhJypFkaw)" stroke-opacity="1" stroke-linejoin="bevel" stroke-miterlimit="10"/><path fill="rgb(0,0,0)" stroke="rgb(0,0,0)" paint-order="fill" d="M 104.11500251293182 150.87158203125 A 1.03166663646698 1.03166663646698 0 0 1 102.05166923999786 150.87158203125 A 1.03166663646698 1.03166663646698 0 0 1 104.11500251293182 150.87158203125" fill-opacity="1" clip-path="url(#StFKhJypFkaw)" stroke-opacity="1" stroke-linejoin="bevel" stroke-miterlimit="10"/><path fill="rgb(0,0,0)" stroke="rgb(0,0,0)" paint-order="fill" d="M 104.11500251293182 126.77494812011719 A 1.03166663646698 1.03166663646698 0 0 1 102.05166923999786 126.77494812011719 A 1.03166663646698 1.03166663646698 0 0 1 104.11500251293182 126.77494812011719" fill-opacity="1" clip-path="url(#StFKhJypFkaw)" stroke-opacity="1" stroke-linejoin="bevel" stroke-miterlimit="10"/><path fill="rgb(0,0,0)" stroke="rgb(0,0,0)" paint-order="fill" d="M 104.11500251293182 149.6619110107422 A 1.03166663646698 1.03166663646698 0 0 1 102.05166923999786 149.6619110107422 A 1.03166663646698 1.03166663646698 0 0 1 104.11500251293182 149.6619110107422" fill-opacity="1" clip-path="url(#StFKhJypFkaw)" stroke-opacity="1" stroke-linejoin="bevel" stroke-miterlimit="10"/><path fill="rgb(0,0,0)" stroke="rgb(0,0,0)" paint-order="fill" d="M 104.11500251293182 143.79135131835938 A 1.03166663646698 1.03166663646698 0 0 1 102.05166923999786 143.79135131835938 A 1.03166663646698 1.03166663646698 0 0 1 104.11500251293182 143.79135131835938" fill-opacity="1" clip-path="url(#StFKhJypFkaw)" stroke-opacity="1" stroke-linejoin="bevel" stroke-miterlimit="10"/><path fill="rgb(0,0,0)" stroke="rgb(0,0,0)" paint-order="fill" d="M 104.11500251293182 140.4493865966797 A 1.03166663646698 1.03166663646698 0 0 1 102.05166923999786 140.4493865966797 A 1.03166663646698 1.03166663646698 0 0 1 104.11500251293182 140.4493865966797" fill-opacity="1" clip-path="url(#StFKhJypFkaw)" stroke-opacity="1" stroke-linejoin="bevel" stroke-miterlimit="10"/><path fill="rgb(0,0,0)" stroke="rgb(0,0,0)" paint-order="fill" d="M 104.11500251293182 103.04633331298828 A 1.03166663646698 1.03166663646698 0 0 1 102.05166923999786 103.04633331298828 A 1.03166663646698 1.03166663646698 0 0 1 104.11500251293182 103.04633331298828" fill-opacity="1" clip-path="url(#StFKhJypFkaw)" stroke-opacity="1" stroke-linejoin="bevel" stroke-miterlimit="10"/><path fill="rgb(0,0,0)" stroke="rgb(0,0,0)" paint-order="fill" d="M 104.11500251293182 142.62408447265625 A 1.03166663646698 1.03166663646698 0 0 1 102.05166923999786 142.62408447265625 A 1.03166663646698 1.03166663646698 0 0 1 104.11500251293182 142.62408447265625" fill-opacity="1" clip-path="url(#StFKhJypFkaw)" stroke-opacity="1" stroke-linejoin="bevel" stroke-miterlimit="10"/><path fill="rgb(0,0,0)" stroke="rgb(0,0,0)" paint-order="fill" d="M 104.11500251293182 148.37442016601562 A 1.03166663646698 1.03166663646698 0 0 1 102.05166923999786 148.37442016601562 A 1.03166663646698 1.03166663646698 0 0 1 104.11500251293182 148.37442016601562" fill-opacity="1" clip-path="url(#StFKhJypFkaw)" stroke-opacity="1" stroke-linejoin="bevel" stroke-miterlimit="10"/><path fill="rgb(0,0,0)" stroke="rgb(0,0,0)" paint-order="fill" d="M 104.11500251293182 128.82894897460938 A 1.03166663646698 1.03166663646698 0 0 1 102.05166923999786 128.82894897460938 A 1.03166663646698 1.03166663646698 0 0 1 104.11500251293182 128.82894897460938" fill-opacity="1" clip-path="url(#StFKhJypFkaw)" stroke-opacity="1" stroke-linejoin="bevel" stroke-miterlimit="10"/><path fill="rgb(0,0,0)" stroke="rgb(0,0,0)" paint-order="fill" d="M 104.11500251293182 141.8720245361328 A 1.03166663646698 1.03166663646698 0 0 1 102.05166923999786 141.8720245361328 A 1.03166663646698 1.03166663646698 0 0 1 104.11500251293182 141.8720245361328" fill-opacity="1" clip-path="url(#StFKhJypFkaw)" stroke-opacity="1" stroke-linejoin="bevel" stroke-miterlimit="10"/><path fill="rgb(0,0,0)" stroke="rgb(0,0,0)" paint-order="fill" d="M 104.11500251293182 139.72560119628906 A 1.03166663646698 1.03166663646698 0 0 1 102.05166923999786 139.72560119628906 A 1.03166663646698 1.03166663646698 0 0 1 104.11500251293182 139.72560119628906" fill-opacity="1" clip-path="url(#StFKhJypFkaw)" stroke-opacity="1" stroke-linejoin="bevel" stroke-miterlimit="10"/><path fill="rgb(0,0,0)" stroke="rgb(0,0,0)" paint-order="fill" d="M 104.11500251293182 134.087890625 A 1.03166663646698 1.03166663646698 0 0 1 102.05166923999786 134.087890625 A 1.03166663646698 1.03166663646698 0 0 1 104.11500251293182 134.087890625" fill-opacity="1" clip-path="url(#StFKhJypFkaw)" stroke-opacity="1" stroke-linejoin="bevel" stroke-miterlimit="10"/><path fill="rgb(0,0,0)" stroke="rgb(0,0,0)" paint-order="fill" d="M 104.11500251293182 141.00111389160156 A 1.03166663646698 1.03166663646698 0 0 1 102.05166923999786 141.00111389160156 A 1.03166663646698 1.03166663646698 0 0 1 104.11500251293182 141.00111389160156" fill-opacity="1" clip-path="url(#StFKhJypFkaw)" stroke-opacity="1" stroke-linejoin="bevel" stroke-miterlimit="10"/><path fill="rgb(0,0,0)" stroke="rgb(0,0,0)" paint-order="fill" d="M 104.11500251293182 92.10071563720703 A 1.03166663646698 1.03166663646698 0 0 1 102.05166923999786 92.10071563720703 A 1.03166663646698 1.03166663646698 0 0 1 104.11500251293182 92.10071563720703" fill-opacity="1" clip-path="url(#StFKhJypFkaw)" stroke-opacity="1" stroke-linejoin="bevel" stroke-miterlimit="10"/><path fill="rgb(0,0,0)" stroke="rgb(0,0,0)" paint-order="fill" d="M 104.11500251293182 64.8730697631836 A 1.03166663646698 1.03166663646698 0 0 1 102.05166923999786 64.8730697631836 A 1.03166663646698 1.03166663646698 0 0 1 104.11500251293182 64.8730697631836" fill-opacity="1" clip-path="url(#StFKhJypFkaw)" stroke-opacity="1" stroke-linejoin="bevel" stroke-miterlimit="10"/><path fill="rgb(0,0,0)" stroke="rgb(0,0,0)" paint-order="fill" d="M 104.11500251293182 156.0261688232422 A 1.03166663646698 1.03166663646698 0 0 1 102.05166923999786 156.0261688232422 A 1.03166663646698 1.03166663646698 0 0 1 104.11500251293182 156.0261688232422" fill-opacity="1" clip-path="url(#StFKhJypFkaw)" stroke-opacity="1" stroke-linejoin="bevel" stroke-miterlimit="10"/><path fill="rgb(0,0,0)" stroke="rgb(0,0,0)" paint-order="fill" d="M 104.11500251293182 117.79131317138672 A 1.03166663646698 1.03166663646698 0 0 1 102.05166923999786 117.79131317138672 A 1.03166663646698 1.03166663646698 0 0 1 104.11500251293182 117.79131317138672" fill-opacity="1" clip-path="url(#StFKhJypFkaw)" stroke-opacity="1" stroke-linejoin="bevel" stroke-miterlimit="10"/><path fill="rgb(0,0,0)" stroke="rgb(0,0,0)" paint-order="fill" d="M 104.11500251293182 111.22457885742188 A 1.03166663646698 1.03166663646698 0 0 1 102.05166923999786 111.22457885742188 A 1.03166663646698 1.03166663646698 0 0 1 104.11500251293182 111.22457885742188" fill-opacity="1" clip-path="url(#StFKhJypFkaw)" stroke-opacity="1" stroke-linejoin="bevel" stroke-miterlimit="10"/><path fill="rgb(0,0,0)" stroke="rgb(0,0,0)" paint-order="fill" d="M 104.11500251293182 45.66666793823242 A 1.03166663646698 1.03166663646698 0 0 1 102.05166923999786 45.66666793823242 A 1.03166663646698 1.03166663646698 0 0 1 104.11500251293182 45.66666793823242" fill-opacity="1" clip-path="url(#StFKhJypFkaw)" stroke-opacity="1" stroke-linejoin="bevel" stroke-miterlimit="10"/><path fill="rgb(0,0,0)" stroke="rgb(0,0,0)" paint-order="fill" d="M 207.28166663646698 141.64483642578125 A 1.03166663646698 1.03166663646698 0 0 1 205.21833336353302 141.64483642578125 A 1.03166663646698 1.03166663646698 0 0 1 207.28166663646698 141.64483642578125" fill-opacity="1" clip-path="url(#StFKhJypFkaw)" stroke-opacity="1" stroke-linejoin="bevel" stroke-miterlimit="10"/><path fill="rgb(0,0,0)" stroke="rgb(0,0,0)" paint-order="fill" d="M 207.28166663646698 129.38023376464844 A 1.03166663646698 1.03166663646698 0 0 1 205.21833336353302 129.38023376464844 A 1.03166663646698 1.03166663646698 0 0 1 207.28166663646698 129.38023376464844" fill-opacity="1" clip-path="url(#StFKhJypFkaw)" stroke-opacity="1" stroke-linejoin="bevel" stroke-miterlimit="10"/><path fill="rgb(0,0,0)" stroke="rgb(0,0,0)" paint-order="fill" d="M 207.28166663646698 132.81690979003906 A 1.03166663646698 1.03166663646698 0 0 1 205.21833336353302 132.81690979003906 A 1.03166663646698 1.03166663646698 0 0 1 207.28166663646698 132.81690979003906" fill-opacity="1" clip-path="url(#StFKhJypFkaw)" stroke-opacity="1" stroke-linejoin="bevel" stroke-miterlimit="10"/><path fill="rgb(0,0,0)" stroke="rgb(0,0,0)" paint-order="fill" d="M 207.28166663646698 133.20657348632812 A 1.03166663646698 1.03166663646698 0 0 1 205.21833336353302 133.20657348632812 A 1.03166663646698 1.03166663646698 0 0 1 207.28166663646698 133.20657348632812" fill-opacity="1" clip-path="url(#StFKhJypFkaw)" stroke-opacity="1" stroke-linejoin="bevel" stroke-miterlimit="10"/><path fill="rgb(0,0,0)" stroke="rgb(0,0,0)" paint-order="fill" d="M 207.28166663646698 132.5119171142578 A 1.03166663646698 1.03166663646698 0 0 1 205.21833336353302 132.5119171142578 A 1.03166663646698 1.03166663646698 0 0 1 207.28166663646698 132.5119171142578" fill-opacity="1" clip-path="url(#StFKhJypFkaw)" stroke-opacity="1" stroke-linejoin="bevel" stroke-miterlimit="10"/><path fill="rgb(0,0,0)" stroke="rgb(0,0,0)" paint-order="fill" d="M 207.28166663646698 152.02838134765625 A 1.03166663646698 1.03166663646698 0 0 1 205.21833336353302 152.02838134765625 A 1.03166663646698 1.03166663646698 0 0 1 207.28166663646698 152.02838134765625" fill-opacity="1" clip-path="url(#StFKhJypFkaw)" stroke-opacity="1" stroke-linejoin="bevel" stroke-miterlimit="10"/><path fill="rgb(0,0,0)" stroke="rgb(0,0,0)" paint-order="fill" d="M 207.28166663646698 130.6544952392578 A 1.03166663646698 1.03166663646698 0 0 1 205.21833336353302 130.6544952392578 A 1.03166663646698 1.03166663646698 0 0 1 207.28166663646698 130.6544952392578" fill-opacity="1" clip-path="url(#StFKhJypFkaw)" stroke-opacity="1" stroke-linejoin="bevel" stroke-miterlimit="10"/><path fill="rgb(0,0,0)" stroke="rgb(0,0,0)" paint-order="fill" d="M 207.28166663646698 129.88197326660156 A 1.03166663646698 1.03166663646698 0 0 1 205.21833336353302 129.88197326660156 A 1.03166663646698 1.03166663646698 0 0 1 207.28166663646698 129.88197326660156" fill-opacity="1" clip-path="url(#StFKhJypFkaw)" stroke-opacity="1" stroke-linejoin="bevel" stroke-miterlimit="10"/><path fill="rgb(0,0,0)" stroke="rgb(0,0,0)" paint-order="fill" d="M 310.4483231306076 176.60369873046875 A 1.03166663646698 1.03166663646698 0 0 1 308.38498985767365 176.60369873046875 A 1.03166663646698 1.03166663646698 0 0 1 310.4483231306076 176.60369873046875" fill-opacity="1" clip-path="url(#StFKhJypFkaw)" stroke-opacity="1" stroke-linejoin="bevel" stroke-miterlimit="10"/><path fill="rgb(0,0,0)" stroke="rgb(0,0,0)" paint-order="fill" d="M 310.4483231306076 120.42573547363281 A 1.03166663646698 1.03166663646698 0 0 1 308.38498985767365 120.42573547363281 A 1.03166663646698 1.03166663646698 0 0 1 310.4483231306076 120.42573547363281" fill-opacity="1" clip-path="url(#StFKhJypFkaw)" stroke-opacity="1" stroke-linejoin="bevel" stroke-miterlimit="10"/><path fill="rgb(0,0,0)" stroke="rgb(0,0,0)" paint-order="fill" d="M 310.4483231306076 73.98675537109375 A 1.03166663646698 1.03166663646698 0 0 1 308.38498985767365 73.98675537109375 A 1.03166663646698 1.03166663646698 0 0 1 310.4483231306076 73.98675537109375" fill-opacity="1" clip-path="url(#StFKhJypFkaw)" stroke-opacity="1" stroke-linejoin="bevel" stroke-miterlimit="10"/><path fill="rgb(0,0,0)" stroke="rgb(0,0,0)" paint-order="fill" d="M 310.4483231306076 75.6652603149414 A 1.03166663646698 1.03166663646698 0 0 1 308.38498985767365 75.6652603149414 A 1.03166663646698 1.03166663646698 0 0 1 310.4483231306076 75.6652603149414" fill-opacity="1" clip-path="url(#StFKhJypFkaw)" stroke-opacity="1" stroke-linejoin="bevel" stroke-miterlimit="10"/><path fill="rgb(0,0,0)" stroke="rgb(0,0,0)" paint-order="fill" d="M 310.4483231306076 172.6126708984375 A 1.03166663646698 1.03166663646698 0 0 1 308.38498985767365 172.6126708984375 A 1.03166663646698 1.03166663646698 0 0 1 310.4483231306076 172.6126708984375" fill-opacity="1" clip-path="url(#StFKhJypFkaw)" stroke-opacity="1" stroke-linejoin="bevel" stroke-miterlimit="10"/><path fill="rgb(0,0,0)" stroke="rgb(0,0,0)" paint-order="fill" d="M 310.4483231306076 76.65373229980469 A 1.03166663646698 1.03166663646698 0 0 1 308.38498985767365 76.65373229980469 A 1.03166663646698 1.03166663646698 0 0 1 310.4483231306076 76.65373229980469" fill-opacity="1" clip-path="url(#StFKhJypFkaw)" stroke-opacity="1" stroke-linejoin="bevel" stroke-miterlimit="10"/><path fill="rgb(0,0,0)" stroke="rgb(0,0,0)" paint-order="fill" d="M 413.61501014232635 108.2142105102539 A 1.03166663646698 1.03166663646698 0 0 1 411.5516768693924 108.2142105102539 A 1.03166663646698 1.03166663646698 0 0 1 413.61501014232635 108.2142105102539" fill-opacity="1" clip-path="url(#StFKhJypFkaw)" stroke-opacity="1" stroke-linejoin="bevel" stroke-miterlimit="10"/><path fill="rgb(0,0,0)" stroke="rgb(0,0,0)" paint-order="fill" d="M 516.781666636467 169.84352111816406 A 1.03166663646698 1.03166663646698 0 0 1 514.718333363533 169.84352111816406 A 1.03166663646698 1.03166663646698 0 0 1 516.781666636467 169.84352111816406" fill-opacity="1" clip-path="url(#StFKhJypFkaw)" stroke-opacity="1" stroke-linejoin="bevel" stroke-miterlimit="10"/><path fill="rgb(0,0,0)" stroke="rgb(0,0,0)" paint-order="fill" d="M 516.781666636467 118.05355072021484 A 1.03166663646698 1.03166663646698 0 0 1 514.718333363533 118.05355072021484 A 1.03166663646698 1.03166663646698 0 0 1 516.781666636467 118.05355072021484" fill-opacity="1" clip-path="url(#StFKhJypFkaw)" stroke-opacity="1" stroke-linejoin="bevel" stroke-miterlimit="10"/><path fill="rgb(0,0,0)" stroke="rgb(0,0,0)" paint-order="fill" d="M 619.9483536481857 127.92740631103516 A 1.03166663646698 1.03166663646698 0 0 1 617.8850203752518 127.92740631103516 A 1.03166663646698 1.03166663646698 0 0 1 619.9483536481857 127.92740631103516" fill-opacity="1" clip-path="url(#StFKhJypFkaw)" stroke-opacity="1" stroke-linejoin="bevel" stroke-miterlimit="10"/><path fill="rgb(0,0,0)" stroke="rgb(0,0,0)" paint-order="fill" d="M 619.9483536481857 114.29600524902344 A 1.03166663646698 1.03166663646698 0 0 1 617.8850203752518 114.29600524902344 A 1.03166663646698 1.03166663646698 0 0 1 619.9483536481857 114.29600524902344" fill-opacity="1" clip-path="url(#StFKhJypFkaw)" stroke-opacity="1" stroke-linejoin="bevel" stroke-miterlimit="10"/><path fill="none" stroke="rgb(0,0,0)" paint-order="fill" d="M 103.08333587646484 172.5275421142578 L 103.08333587646484 204.3772430419922" stroke-opacity="1" stroke-linejoin="bevel" stroke-miterlimit="10" clip-path="url(#amfbXokDxCUu)"/><path fill="none" stroke="rgb(0,0,0)" paint-order="fill" d="M 206.25 164.2534637451172 L 206.25 197.9332275390625" stroke-opacity="1" stroke-linejoin="bevel" stroke-miterlimit="10" clip-path="url(#amfbXokDxCUu)"/><path fill="none" stroke="rgb(0,0,0)" paint-order="fill" d="M 309.4166564941406 177.7617950439453 L 309.4166564941406 206.70179748535156" stroke-opacity="1" stroke-linejoin="bevel" stroke-miterlimit="10" clip-path="url(#amfbXokDxCUu)"/><path fill="none" stroke="rgb(0,0,0)" paint-order="fill" d="M 412.5833435058594 188.12533569335938 L 412.5833435058594 208.79031372070312" stroke-opacity="1" stroke-linejoin="bevel" stroke-miterlimit="10" clip-path="url(#amfbXokDxCUu)"/><path fill="none" stroke="rgb(0,0,0)" paint-order="fill" d="M 515.75 189.82357788085938 L 515.75 206.7643280029297" stroke-opacity="1" stroke-linejoin="bevel" stroke-miterlimit="10" clip-path="url(#amfbXokDxCUu)"/><path fill="none" stroke="rgb(0,0,0)" paint-order="fill" d="M 618.9166870117188 176.96145629882812 L 618.9166870117188 187.3993377685547" stroke-opacity="1" stroke-linejoin="bevel" stroke-miterlimit="10" clip-path="url(#amfbXokDxCUu)"/><path fill="none" stroke="rgb(0,0,0)" paint-order="fill" d="M 103.08333587646484 237.3333282470703 L 103.08333587646484 232.20021057128906" stroke-opacity="1" stroke-linejoin="bevel" stroke-miterlimit="10" clip-path="url(#zXbBogrULqGt)"/><path fill="none" stroke="rgb(0,0,0)" paint-order="fill" d="M 206.25 235.57716369628906 L 206.25 226.12261962890625" stroke-opacity="1" stroke-linejoin="bevel" stroke-miterlimit="10" clip-path="url(#zXbBogrULqGt)"/><path fill="none" stroke="rgb(0,0,0)" paint-order="fill" d="M 309.4166564941406 236.3920135498047 L 309.4166564941406 226.73446655273438" stroke-opacity="1" stroke-linejoin="bevel" stroke-miterlimit="10" clip-path="url(#zXbBogrULqGt)"/><path fill="none" stroke="rgb(0,0,0)" paint-order="fill" d="M 412.5833435058594 233.84490966796875 L 412.5833435058594 223.22784423828125" stroke-opacity="1" stroke-linejoin="bevel" stroke-miterlimit="10" clip-path="url(#zXbBogrULqGt)"/><path fill="none" stroke="rgb(0,0,0)" paint-order="fill" d="M 515.75 236.1073760986328 L 515.75 228.41717529296875" stroke-opacity="1" stroke-linejoin="bevel" stroke-miterlimit="10" clip-path="url(#zXbBogrULqGt)"/><path fill="none" stroke="rgb(0,0,0)" paint-order="fill" d="M 618.9166870117188 235.97354125976562 L 618.9166870117188 218.5528564453125" stroke-opacity="1" stroke-linejoin="bevel" stroke-miterlimit="10" clip-path="url(#zXbBogrULqGt)"/><path fill="none" stroke="rgb(0,0,0)" paint-order="fill" d="M 82.45000457763672 237.3333282470703 L 123.71666717529297 237.3333282470703" stroke-opacity="1" stroke-linejoin="bevel" stroke-miterlimit="10" clip-path="url(#kWuLMahMoasN)"/><path fill="none" stroke="rgb(0,0,0)" paint-order="fill" d="M 185.61666870117188 235.57716369628906 L 226.88333129882812 235.57716369628906" stroke-opacity="1" stroke-linejoin="bevel" stroke-miterlimit="10" clip-path="url(#kWuLMahMoasN)"/><path fill="none" stroke="rgb(0,0,0)" paint-order="fill" d="M 288.7833251953125 236.3920135498047 L 330.0500183105469 236.3920135498047" stroke-opacity="1" stroke-linejoin="bevel" stroke-miterlimit="10" clip-path="url(#kWuLMahMoasN)"/><path fill="none" stroke="rgb(0,0,0)" paint-order="fill" d="M 391.9499816894531 233.84490966796875 L 433.2166748046875 233.84490966796875" stroke-opacity="1" stroke-linejoin="bevel" stroke-miterlimit="10" clip-path="url(#kWuLMahMoasN)"/><path fill="none" stroke="rgb(0,0,0)" paint-order="fill" d="M 495.11669921875 236.1073760986328 L 536.38330078125 236.1073760986328" stroke-opacity="1" stroke-linejoin="bevel" stroke-miterlimit="10" clip-path="url(#kWuLMahMoasN)"/><path fill="none" stroke="rgb(0,0,0)" paint-order="fill" d="M 598.2833251953125 235.97354125976562 L 639.5499877929688 235.97354125976562" stroke-opacity="1" stroke-linejoin="bevel" stroke-miterlimit="10" clip-path="url(#kWuLMahMoasN)"/><path fill="none" stroke="rgb(0,0,0)" paint-order="fill" d="M 82.45000457763672 172.5275421142578 L 123.71666717529297 172.5275421142578" stroke-opacity="1" stroke-linejoin="bevel" stroke-miterlimit="10" clip-path="url(#ecsTfLFyGVFJ)"/><path fill="none" stroke="rgb(0,0,0)" paint-order="fill" d="M 185.61666870117188 164.2534637451172 L 226.88333129882812 164.2534637451172" stroke-opacity="1" stroke-linejoin="bevel" stroke-miterlimit="10" clip-path="url(#ecsTfLFyGVFJ)"/><path fill="none" stroke="rgb(0,0,0)" paint-order="fill" d="M 288.7833251953125 177.7617950439453 L 330.0500183105469 177.7617950439453" stroke-opacity="1" stroke-linejoin="bevel" stroke-miterlimit="10" clip-path="url(#ecsTfLFyGVFJ)"/><path fill="none" stroke="rgb(0,0,0)" paint-order="fill" d="M 391.9499816894531 188.12533569335938 L 433.2166748046875 188.12533569335938" stroke-opacity="1" stroke-linejoin="bevel" stroke-miterlimit="10" clip-path="url(#ecsTfLFyGVFJ)"/><path fill="none" stroke="rgb(0,0,0)" paint-order="fill" d="M 495.11669921875 189.82357788085938 L 536.38330078125 189.82357788085938" stroke-opacity="1" stroke-linejoin="bevel" stroke-miterlimit="10" clip-path="url(#ecsTfLFyGVFJ)"/><path fill="none" stroke="rgb(0,0,0)" paint-order="fill" d="M 598.2833251953125 176.96145629882812 L 639.5499877929688 176.96145629882812" stroke-opacity="1" stroke-linejoin="bevel" stroke-miterlimit="10" clip-path="url(#ecsTfLFyGVFJ)"/><path fill="rgb(48,162,218)" stroke="rgb(0,0,0)" paint-order="fill" d="M 66.97500610351562 204.3772430419922 L 139.19166564941406 204.3772430419922 L 139.19166564941406 223.49778747558594 L 66.97500610351562 223.49778747558594 L 66.97500610351562 204.3772430419922 Z" fill-opacity="1" clip-path="url(#DkLDyvvBqJEL)" stroke-opacity="1" stroke-linejoin="bevel" stroke-miterlimit="10"/><path fill="rgb(48,162,218)" stroke="rgb(0,0,0)" paint-order="fill" d="M 170.14166259765625 197.9332275390625 L 242.35833740234375 197.9332275390625 L 242.35833740234375 215.71885681152344 L 170.14166259765625 215.71885681152344 L 170.14166259765625 197.9332275390625 Z" fill-opacity="1" clip-path="url(#DkLDyvvBqJEL)" stroke-opacity="1" stroke-linejoin="bevel" stroke-miterlimit="10"/><path fill="rgb(48,162,218)" stroke="rgb(0,0,0)" paint-order="fill" d="M 273.3083190917969 206.70179748535156 L 345.5249938964844 206.70179748535156 L 345.5249938964844 218.9661865234375 L 273.3083190917969 218.9661865234375 L 273.3083190917969 206.70179748535156 Z" fill-opacity="1" clip-path="url(#DkLDyvvBqJEL)" stroke-opacity="1" stroke-linejoin="bevel" stroke-miterlimit="10"/><path fill="rgb(48,162,218)" stroke="rgb(0,0,0)" paint-order="fill" d="M 376.4750061035156 208.79031372070312 L 448.6916809082031 208.79031372070312 L 448.6916809082031 217.95310974121094 L 376.4750061035156 217.95310974121094 L 376.4750061035156 208.79031372070312 Z" fill-opacity="1" clip-path="url(#DkLDyvvBqJEL)" stroke-opacity="1" stroke-linejoin="bevel" stroke-miterlimit="10"/><path fill="rgb(48,162,218)" stroke="rgb(0,0,0)" paint-order="fill" d="M 479.64166259765625 206.7643280029297 L 551.8583374023438 206.7643280029297 L 551.8583374023438 222.6300811767578 L 479.64166259765625 222.6300811767578 L 479.64166259765625 206.7643280029297 Z" fill-opacity="1" clip-path="url(#DkLDyvvBqJEL)" stroke-opacity="1" stroke-linejoin="bevel" stroke-miterlimit="10"/><path fill="rgb(48,162,218)" stroke="rgb(0,0,0)" paint-order="fill" d="M 582.808349609375 187.3993377685547 L 655.0250244140625 187.3993377685547 L 655.0250244140625 193.98281860351562 L 582.808349609375 193.98281860351562 L 582.808349609375 187.3993377685547 Z" fill-opacity="1" clip-path="url(#DkLDyvvBqJEL)" stroke-opacity="1" stroke-linejoin="bevel" stroke-miterlimit="10"/><path fill="rgb(48,162,218)" stroke="rgb(0,0,0)" paint-order="fill" d="M 66.97500610351562 223.49778747558594 L 139.19166564941406 223.49778747558594 L 139.19166564941406 232.20021057128906 L 66.97500610351562 232.20021057128906 L 66.97500610351562 223.49778747558594 Z" fill-opacity="1" clip-path="url(#EKEFNesCETZy)" stroke-opacity="1" stroke-linejoin="bevel" stroke-miterlimit="10"/><path fill="rgb(48,162,218)" stroke="rgb(0,0,0)" paint-order="fill" d="M 170.14166259765625 215.71885681152344 L 242.35833740234375 215.71885681152344 L 242.35833740234375 226.12261962890625 L 170.14166259765625 226.12261962890625 L 170.14166259765625 215.71885681152344 Z" fill-opacity="1" clip-path="url(#EKEFNesCETZy)" stroke-opacity="1" stroke-linejoin="bevel" stroke-miterlimit="10"/><path fill="rgb(48,162,218)" stroke="rgb(0,0,0)" paint-order="fill" d="M 273.3083190917969 218.9661865234375 L 345.5249938964844 218.9661865234375 L 345.5249938964844 226.73446655273438 L 273.3083190917969 226.73446655273438 L 273.3083190917969 218.9661865234375 Z" fill-opacity="1" clip-path="url(#EKEFNesCETZy)" stroke-opacity="1" stroke-linejoin="bevel" stroke-miterlimit="10"/><path fill="rgb(48,162,218)" stroke="rgb(0,0,0)" paint-order="fill" d="M 376.4750061035156 217.95310974121094 L 448.6916809082031 217.95310974121094 L 448.6916809082031 223.22784423828125 L 376.4750061035156 223.22784423828125 L 376.4750061035156 217.95310974121094 Z" fill-opacity="1" clip-path="url(#EKEFNesCETZy)" stroke-opacity="1" stroke-linejoin="bevel" stroke-miterlimit="10"/><path fill="rgb(48,162,218)" stroke="rgb(0,0,0)" paint-order="fill" d="M 479.64166259765625 222.6300811767578 L 551.8583374023438 222.6300811767578 L 551.8583374023438 228.41717529296875 L 479.64166259765625 228.41717529296875 L 479.64166259765625 222.6300811767578 Z" fill-opacity="1" clip-path="url(#EKEFNesCETZy)" stroke-opacity="1" stroke-linejoin="bevel" stroke-miterlimit="10"/><path fill="rgb(48,162,218)" stroke="rgb(0,0,0)" paint-order="fill" d="M 582.808349609375 193.98281860351562 L 655.0250244140625 193.98281860351562 L 655.0250244140625 218.5528564453125 L 582.808349609375 218.5528564453125 L 582.808349609375 193.98281860351562 Z" fill-opacity="1" clip-path="url(#EKEFNesCETZy)" stroke-opacity="1" stroke-linejoin="bevel" stroke-miterlimit="10"/><path fill="none" stroke="black" paint-order="fill" d="M 51.5 256.5 L 670.5 256.5" stroke-linejoin="bevel" stroke-miterlimit="10"/><path fill="none" stroke="black" paint-order="fill" d="M 103.5 262.5 L 103.5 254.5 M 206.5 262.5 L 206.5 254.5 M 309.5 262.5 L 309.5 254.5 M 412.5 262.5 L 412.5 254.5 M 515.5 262.5 L 515.5 254.5 M 618.5 262.5 L 618.5 254.5" stroke-linejoin="bevel" stroke-miterlimit="10"/><path fill="none" stroke="black" paint-order="fill" d="" stroke-linejoin="bevel" stroke-miterlimit="10"/><text fill="#444444" stroke="none" font-family="helvetica" font-size="11px" font-style="normal" font-weight="normal" text-decoration="normal" x="96.4666690826416" y="274.89013671875" text-anchor="start" dominant-baseline="alphabetic" transform="matrix(1, 0, 0, 1, 0.5, 0.5)">28</text><text fill="none" stroke="rgb(0,0,0)" font-family="helvetica" font-size="11px" font-style="normal" font-weight="normal" text-decoration="normal" x="96.4666690826416" y="274.89013671875" text-anchor="start" dominant-baseline="alphabetic" transform="matrix(1, 0, 0, 1, 0.5, 0.5)" stroke-opacity="0" stroke-linejoin="bevel" stroke-miterlimit="10">28</text><text fill="#444444" stroke="none" font-family="helvetica" font-size="11px" font-style="normal" font-weight="normal" text-decoration="normal" x="199.63333320617676" y="274.89013671875" text-anchor="start" dominant-baseline="alphabetic" transform="matrix(1, 0, 0, 1, 0.5, 0.5)">29</text><text fill="none" stroke="rgb(0,0,0)" font-family="helvetica" font-size="11px" font-style="normal" font-weight="normal" text-decoration="normal" x="199.63333320617676" y="274.89013671875" text-anchor="start" dominant-baseline="alphabetic" transform="matrix(1, 0, 0, 1, 0.5, 0.5)" stroke-opacity="0" stroke-linejoin="bevel" stroke-miterlimit="10">29</text><text fill="#444444" stroke="none" font-family="helvetica" font-size="11px" font-style="normal" font-weight="normal" text-decoration="normal" x="302.7999897003174" y="274.89013671875" text-anchor="start" dominant-baseline="alphabetic" transform="matrix(1, 0, 0, 1, 0.5, 0.5)">30</text><text fill="none" stroke="rgb(0,0,0)" font-family="helvetica" font-size="11px" font-style="normal" font-weight="normal" text-decoration="normal" x="302.7999897003174" y="274.89013671875" text-anchor="start" dominant-baseline="alphabetic" transform="matrix(1, 0, 0, 1, 0.5, 0.5)" stroke-opacity="0" stroke-linejoin="bevel" stroke-miterlimit="10">30</text><text fill="#444444" stroke="none" font-family="helvetica" font-size="11px" font-style="normal" font-weight="normal" text-decoration="normal" x="405.96667671203613" y="274.89013671875" text-anchor="start" dominant-baseline="alphabetic" transform="matrix(1, 0, 0, 1, 0.5, 0.5)">31</text><text fill="none" stroke="rgb(0,0,0)" font-family="helvetica" font-size="11px" font-style="normal" font-weight="normal" text-decoration="normal" x="405.96667671203613" y="274.89013671875" text-anchor="start" dominant-baseline="alphabetic" transform="matrix(1, 0, 0, 1, 0.5, 0.5)" stroke-opacity="0" stroke-linejoin="bevel" stroke-miterlimit="10">31</text><text fill="#444444" stroke="none" font-family="helvetica" font-size="11px" font-style="normal" font-weight="normal" text-decoration="normal" x="509.13333320617676" y="274.89013671875" text-anchor="start" dominant-baseline="alphabetic" transform="matrix(1, 0, 0, 1, 0.5, 0.5)">32</text><text fill="none" stroke="rgb(0,0,0)" font-family="helvetica" font-size="11px" font-style="normal" font-weight="normal" text-decoration="normal" x="509.13333320617676" y="274.89013671875" text-anchor="start" dominant-baseline="alphabetic" transform="matrix(1, 0, 0, 1, 0.5, 0.5)" stroke-opacity="0" stroke-linejoin="bevel" stroke-miterlimit="10">32</text><text fill="#444444" stroke="none" font-family="helvetica" font-size="11px" font-style="normal" font-weight="normal" text-decoration="normal" x="612.3000202178955" y="274.89013671875" text-anchor="start" dominant-baseline="alphabetic" transform="matrix(1, 0, 0, 1, 0.5, 0.5)">33</text><text fill="none" stroke="rgb(0,0,0)" font-family="helvetica" font-size="11px" font-style="normal" font-weight="normal" text-decoration="normal" x="612.3000202178955" y="274.89013671875" text-anchor="start" dominant-baseline="alphabetic" transform="matrix(1, 0, 0, 1, 0.5, 0.5)" stroke-opacity="0" stroke-linejoin="bevel" stroke-miterlimit="10">33</text><text fill="#444444" stroke="none" font-family="helvetica" font-size="13px" font-style="italic" font-weight="normal" text-decoration="normal" x="350.75" y="293.89013671875" text-anchor="start" dominant-baseline="alphabetic" transform="matrix(1, 0, 0, 1, 0.5, 0.5)">MY</text><text fill="none" stroke="rgb(0,0,0)" font-family="helvetica" font-size="13px" font-style="italic" font-weight="normal" text-decoration="normal" x="350.75" y="293.89013671875" text-anchor="start" dominant-baseline="alphabetic" transform="matrix(1, 0, 0, 1, 0.5, 0.5)" stroke-opacity="0" stroke-linejoin="bevel" stroke-miterlimit="10">MY</text><path fill="none" stroke="black" paint-order="fill" d="M 51.5 256.5 L 51.5 26.5" stroke-linejoin="bevel" stroke-miterlimit="10"/><path fill="none" stroke="black" paint-order="fill" d="M 45.5 237.5 L 53.5 237.5 M 45.5 184.5 L 53.5 184.5 M 45.5 132.5 L 53.5 132.5 M 45.5 79.5 L 53.5 79.5 M 45.5 26.5 L 53.5 26.5" stroke-linejoin="bevel" stroke-miterlimit="10"/><path fill="none" stroke="black" paint-order="fill" d="M 47.5 248.5 L 51.5 248.5 M 47.5 237.5 L 51.5 237.5 M 47.5 226.5 L 51.5 226.5 M 47.5 216.5 L 51.5 216.5 M 47.5 205.5 L 51.5 205.5 M 47.5 195.5 L 51.5 195.5 M 47.5 184.5 L 51.5 184.5 M 47.5 174.5 L 51.5 174.5 M 47.5 163.5 L 51.5 163.5 M 47.5 153.5 L 51.5 153.5 M 47.5 142.5 L 51.5 142.5 M 47.5 132.5 L 51.5 132.5 M 47.5 121.5 L 51.5 121.5 M 47.5 111.5 L 51.5 111.5 M 47.5 100.5 L 51.5 100.5 M 47.5 90.5 L 51.5 90.5 M 47.5 79.5 L 51.5 79.5 M 47.5 68.5 L 51.5 68.5 M 47.5 58.5 L 51.5 58.5 M 47.5 47.5 L 51.5 47.5 M 47.5 37.5 L 51.5 37.5 M 47.5 26.5 L 51.5 26.5" stroke-linejoin="bevel" stroke-miterlimit="10"/><text fill="#444444" stroke="none" font-family="helvetica" font-size="11px" font-style="normal" font-weight="normal" text-decoration="normal" x="33.88333320617676" y="240.97084045410156" text-anchor="start" dominant-baseline="alphabetic" transform="matrix(1, 0, 0, 1, 0.5, 0.5)">0</text><text fill="none" stroke="rgb(0,0,0)" font-family="helvetica" font-size="11px" font-style="normal" font-weight="normal" text-decoration="normal" x="33.88333320617676" y="240.97084045410156" text-anchor="start" dominant-baseline="alphabetic" transform="matrix(1, 0, 0, 1, 0.5, 0.5)" stroke-opacity="0" stroke-linejoin="bevel" stroke-miterlimit="10">0</text><text fill="#444444" stroke="none" font-family="helvetica" font-size="11px" font-style="normal" font-weight="normal" text-decoration="normal" x="24.716666221618652" y="188.30429077148438" text-anchor="start" dominant-baseline="alphabetic" transform="matrix(1, 0, 0, 1, 0.5, 0.5)">0.1</text><text fill="none" stroke="rgb(0,0,0)" font-family="helvetica" font-size="11px" font-style="normal" font-weight="normal" text-decoration="normal" x="24.716666221618652" y="188.30429077148438" text-anchor="start" dominant-baseline="alphabetic" transform="matrix(1, 0, 0, 1, 0.5, 0.5)" stroke-opacity="0" stroke-linejoin="bevel" stroke-miterlimit="10">0.1</text><text fill="#444444" stroke="none" font-family="helvetica" font-size="11px" font-style="normal" font-weight="normal" text-decoration="normal" x="24.716666221618652" y="135.63772583007812" text-anchor="start" dominant-baseline="alphabetic" transform="matrix(1, 0, 0, 1, 0.5, 0.5)">0.2</text><text fill="none" stroke="rgb(0,0,0)" font-family="helvetica" font-size="11px" font-style="normal" font-weight="normal" text-decoration="normal" x="24.716666221618652" y="135.63772583007812" text-anchor="start" dominant-baseline="alphabetic" transform="matrix(1, 0, 0, 1, 0.5, 0.5)" stroke-opacity="0" stroke-linejoin="bevel" stroke-miterlimit="10">0.2</text><text fill="#444444" stroke="none" font-family="helvetica" font-size="11px" font-style="normal" font-weight="normal" text-decoration="normal" x="24.716666221618652" y="82.9711685180664" text-anchor="start" dominant-baseline="alphabetic" transform="matrix(1, 0, 0, 1, 0.5, 0.5)">0.3</text><text fill="none" stroke="rgb(0,0,0)" font-family="helvetica" font-size="11px" font-style="normal" font-weight="normal" text-decoration="normal" x="24.716666221618652" y="82.9711685180664" text-anchor="start" dominant-baseline="alphabetic" transform="matrix(1, 0, 0, 1, 0.5, 0.5)" stroke-opacity="0" stroke-linejoin="bevel" stroke-miterlimit="10">0.3</text><text fill="#444444" stroke="none" font-family="helvetica" font-size="11px" font-style="normal" font-weight="normal" text-decoration="normal" x="24.716666221618652" y="30.304615020751953" text-anchor="start" dominant-baseline="alphabetic" transform="matrix(1, 0, 0, 1, 0.5, 0.5)">0.4</text><text fill="none" stroke="rgb(0,0,0)" font-family="helvetica" font-size="11px" font-style="normal" font-weight="normal" text-decoration="normal" x="24.716666221618652" y="30.304615020751953" text-anchor="start" dominant-baseline="alphabetic" transform="matrix(1, 0, 0, 1, 0.5, 0.5)" stroke-opacity="0" stroke-linejoin="bevel" stroke-miterlimit="10">0.4</text><text fill="#444444" stroke="none" font-family="helvetica" font-size="13px" font-style="italic" font-weight="normal" text-decoration="normal" x="-36.41666889190674" y="138" text-anchor="start" dominant-baseline="alphabetic" transform="matrix(6.123233995736766e-17, -1, 1, 6.123233995736766e-17, -123.78333377838135, 158.21666622161865)">Coverage_median</text><text fill="none" stroke="rgb(0,0,0)" font-family="helvetica" font-size="13px" font-style="italic" font-weight="normal" text-decoration="normal" x="-36.41666889190674" y="138" text-anchor="start" dominant-baseline="alphabetic" transform="matrix(6.123233995736766e-17, -1, 1, 6.123233995736766e-17, -123.78333377838135, 158.21666622161865)" stroke-opacity="0" stroke-linejoin="bevel" stroke-miterlimit="10">Coverage_median</text><text fill="#444444" stroke="none" font-family="helvetica" font-size="13px" font-style="normal" font-weight="bold" text-decoration="normal" x="0" y="11" text-anchor="start" dominant-baseline="alphabetic" transform="matrix(1, 0, 0, 1, 51.5, 7.5)">Median covered surface fraction across ROIs for 6 Martian Years.</text><text fill="none" stroke="rgb(0,0,0)" font-family="helvetica" font-size="13px" font-style="normal" font-weight="bold" text-decoration="normal" x="0" y="11" text-anchor="start" dominant-baseline="alphabetic" transform="matrix(1, 0, 0, 1, 51.5, 7.5)" stroke-opacity="0" stroke-linejoin="bevel" stroke-miterlimit="10">Median covered surface fraction across ROIs for 6 Martian Years.</text></svg>