<svg version="1.1" xmlns="http://www.w3.org/2000/svg" width="1000" height="300"><defs><clipPath id="FPGGALkDiTkt"><path fill="none" stroke="none" d="M 0.5 0.5 L 1000.5 0.5 L 1000.5 300.5 L 0.5 300.5 L 0.5 0.5 Z M 51.5 26.5 L 403.5 26.5 L 403.5 256.5 L 51.5 256.5 L 51.5 26.5 Z" clip-rule="evenodd"/></clipPath><clipPath id="lAiTctBfnyvf"><path fill="none" stroke="none" d="M 51.5 26.5 L 403.5 26.5 L 403.5 256.5 L 51.5 256.5 L 51.5 26.5 Z"/></clipPath><clipPath id="QwMEDkERhALV"><path fill="none" stroke="none" d="M 51.5 26.5 L 403.5 26.5 L 403.5 256.5 L 51.5 256.5 L 51.5 26.5 Z"/></clipPath><clipPath id="iBAVbgdkuWJi"><path fill="none" stroke="none" d="M 51.5 26.5 L 403.5 26.5 L 403.5 256.5 L 51.5 256.5 L 51.5 26.5 Z"/></clipPath><clipPath id="NosWVMvWqBVs"><path fill="none" stroke="none" d="M 51.5 26.5 L 403.5 26.5 L 403.5 256.5 L 51.5 256.5 L 51.5 26.5 Z"/></clipPath><clipPath id="UmsXUhTLnLUa"><path fill="none" stroke="none" d="M 51.5 26.5 L 403.5 26.5 L 403.5 256.5 L 51.5 256.5 L 51.5 26.5 Z"/></clipPath><clipPath id="GUpoEraBRRWV"><path fill="none" stroke="none" d="M 51.5 26.5 L 403.5 26.5 L 403.5 256.5 L 51.5 256.5 L 51.5 26.5 Z"/></clipPath><clipPath id="aLsSqZVafCnC"><path fill="none" stroke="none" d="M 51.5 26.5 L 403.5 26.5 L 403.5 256.5 L 51.5 256.5 L 51.5 26.5 Z"/></clipPath><clipPath id="wmUQDwbTrQLB"><path fill="none" stroke="none" d="M 51.5 26.5 L 403.5 26.5 L 403.5 256.5 L 51.5 256.5 L 51.5 26.5 Z"/></clipPath></defs><path fill="#ffffff" stroke="none" paint-order="stroke" d="M 0.5 0.5 L 1000.5 0.5 L 1000.5 300.5 L 0.5 300.5 L 0.5 0.5 Z" clip-path="url(#FPGGALkDiTkt)"/><path fill="#ffffff" stroke="none" paint-order="stroke" d="M 51.5 26.5 L 403.5 26.5 L 403.5 256.5 L 51.5 256.5 L 51.5 26.5 Z"/><path fill="none" stroke="#e5e5e5" paint-order="fill" d="M 51.5 26.5 L 403.5 26.5 L 403.5 256.5 L 51.5 256.5 L 51.5 26.5 Z" stroke-linejoin="bevel" stroke-miterlimit="10"/><path fill="rgb(48,162,218)" stroke="rgb(48,162,218)" paint-order="fill" d="M 72.4762531683852 230.56625366210938 A 2.7386127875258306 2.7386127875258306 0 0 1 66.99902759333355 230.56625366210938 A 2.7386127875258306 2.7386127875258306 0 0 1 72.4762531683852 230.56625366210938" fill-opacity="1" clip-path="url(#iBAVbgdkuWJi)" stroke-opacity="1" stroke-linejoin="bevel" stroke-miterlimit="10"/><path fill="rgb(48,162,218)" stroke="rgb(48,162,218)" paint-order="fill" d="M 127.5340916083266 205.7809295654297 A 2.7386127875258306 2.7386127875258306 0 0 1 122.05686603327496 205.7809295654297 A 2.7386127875258306 2.7386127875258306 0 0 1 127.5340916083266 205.7809295654297" fill-opacity="1" clip-path="url(#iBAVbgdkuWJi)" stroke-opacity="1" stroke-linejoin="bevel" stroke-miterlimit="10"/><path fill="rgb(48,162,218)" stroke="rgb(48,162,218)" paint-order="fill" d="M 153.9064747260024 209.76548767089844 A 2.7386127875258306 2.7386127875258306 0 0 1 148.42924915095074 209.76548767089844 A 2.7386127875258306 2.7386127875258306 0 0 1 153.9064747260024 209.76548767089844" fill-opacity="1" clip-path="url(#iBAVbgdkuWJi)" stroke-opacity="1" stroke-linejoin="bevel" stroke-miterlimit="10"/><path fill="rgb(48,162,218)" stroke="rgb(48,162,218)" paint-order="fill" d="M 161.7946583197524 192.4700164794922 A 2.7386127875258306 2.7386127875258306 0 0 1 156.31743274470074 192.4700164794922 A 2.7386127875258306 2.7386127875258306 0 0 1 161.7946583197524 192.4700164794922" fill-opacity="1" clip-path="url(#iBAVbgdkuWJi)" stroke-opacity="1" stroke-linejoin="bevel" stroke-miterlimit="10"/><path fill="rgb(48,162,218)" stroke="rgb(48,162,218)" paint-order="fill" d="M 171.29995311955707 143.98193359375 A 2.7386127875258306 2.7386127875258306 0 0 1 165.82272754450543 143.98193359375 A 2.7386127875258306 2.7386127875258306 0 0 1 171.29995311955707 143.98193359375" fill-opacity="1" clip-path="url(#iBAVbgdkuWJi)" stroke-opacity="1" stroke-linejoin="bevel" stroke-miterlimit="10"/><path fill="rgb(48,162,218)" stroke="rgb(48,162,218)" paint-order="fill" d="M 197.00170482854145 137.05088806152344 A 2.7386127875258306 2.7386127875258306 0 0 1 191.5244792534898 137.05088806152344 A 2.7386127875258306 2.7386127875258306 0 0 1 197.00170482854145 137.05088806152344" fill-opacity="1" clip-path="url(#iBAVbgdkuWJi)" stroke-opacity="1" stroke-linejoin="bevel" stroke-miterlimit="10"/><path fill="rgb(48,162,218)" stroke="rgb(48,162,218)" paint-order="fill" d="M 214.88613476018207 156.70516967773438 A 2.7386127875258306 2.7386127875258306 0 0 1 209.40890918513043 156.70516967773438 A 2.7386127875258306 2.7386127875258306 0 0 1 214.88613476018207 156.70516967773438" fill-opacity="1" clip-path="url(#iBAVbgdkuWJi)" stroke-opacity="1" stroke-linejoin="bevel" stroke-miterlimit="10"/><path fill="rgb(48,162,218)" stroke="rgb(48,162,218)" paint-order="fill" d="M 241.13199962834614 184.06126403808594 A 2.7386127875258306 2.7386127875258306 0 0 1 235.6547740532945 184.06126403808594 A 2.7386127875258306 2.7386127875258306 0 0 1 241.13199962834614 184.06126403808594" fill-opacity="1" clip-path="url(#iBAVbgdkuWJi)" stroke-opacity="1" stroke-linejoin="bevel" stroke-miterlimit="10"/><path fill="rgb(48,162,218)" stroke="rgb(48,162,218)" paint-order="fill" d="M 275.77721752385395 116.79093170166016 A 2.7386127875258306 2.7386127875258306 0 0 1 270.2999919488023 116.79093170166016 A 2.7386127875258306 2.7386127875258306 0 0 1 275.77721752385395 116.79093170166016" fill-opacity="1" clip-path="url(#iBAVbgdkuWJi)" stroke-opacity="1" stroke-linejoin="bevel" stroke-miterlimit="10"/><path fill="rgb(252,79,48)" stroke="rgb(252,79,48)" paint-order="fill" d="M 105.39049114445942 169.7962646484375 A 2.7386127875258306 2.7386127875258306 0 0 1 99.91326556940777 169.7962646484375 A 2.7386127875258306 2.7386127875258306 0 0 1 105.39049114445942 169.7962646484375" fill-opacity="1" clip-path="url(#NosWVMvWqBVs)" stroke-opacity="1" stroke-linejoin="bevel" stroke-miterlimit="10"/><path fill="rgb(252,79,48)" stroke="rgb(252,79,48)" paint-order="fill" d="M 111.43127025822895 176.77145385742188 A 2.7386127875258306 2.7386127875258306 0 0 1 105.9540446831773 176.77145385742188 A 2.7386127875258306 2.7386127875258306 0 0 1 111.43127025822895 176.77145385742188" fill-opacity="1" clip-path="url(#NosWVMvWqBVs)" stroke-opacity="1" stroke-linejoin="bevel" stroke-miterlimit="10"/><path fill="rgb(252,79,48)" stroke="rgb(252,79,48)" paint-order="fill" d="M 132.82323803166645 229.22210693359375 A 2.7386127875258306 2.7386127875258306 0 0 1 127.3460124566148 229.22210693359375 A 2.7386127875258306 2.7386127875258306 0 0 1 132.82323803166645 229.22210693359375" fill-opacity="1" clip-path="url(#NosWVMvWqBVs)" stroke-opacity="1" stroke-linejoin="bevel" stroke-miterlimit="10"/><path fill="rgb(252,79,48)" stroke="rgb(252,79,48)" paint-order="fill" d="M 196.08053173283832 147.98910522460938 A 2.7386127875258306 2.7386127875258306 0 0 1 190.60330615778668 147.98910522460938 A 2.7386127875258306 2.7386127875258306 0 0 1 196.08053173283832 147.98910522460938" fill-opacity="1" clip-path="url(#NosWVMvWqBVs)" stroke-opacity="1" stroke-linejoin="bevel" stroke-miterlimit="10"/><path fill="rgb(252,79,48)" stroke="rgb(252,79,48)" paint-order="fill" d="M 222.144176142018 195.00701904296875 A 2.7386127875258306 2.7386127875258306 0 0 1 216.66695056696636 195.00701904296875 A 2.7386127875258306 2.7386127875258306 0 0 1 222.144176142018 195.00701904296875" fill-opacity="1" clip-path="url(#NosWVMvWqBVs)" stroke-opacity="1" stroke-linejoin="bevel" stroke-miterlimit="10"/><path fill="rgb(252,79,48)" stroke="rgb(252,79,48)" paint-order="fill" d="M 256.7058979437758 211.700439453125 A 2.7386127875258306 2.7386127875258306 0 0 1 251.22867236872418 211.700439453125 A 2.7386127875258306 2.7386127875258306 0 0 1 256.7058979437758 211.700439453125" fill-opacity="1" clip-path="url(#NosWVMvWqBVs)" stroke-opacity="1" stroke-linejoin="bevel" stroke-miterlimit="10"/><path fill="rgb(252,79,48)" stroke="rgb(252,79,48)" paint-order="fill" d="M 292.9809223578383 220.41014099121094 A 2.7386127875258306 2.7386127875258306 0 0 1 287.5036967827867 220.41014099121094 A 2.7386127875258306 2.7386127875258306 0 0 1 292.9809223578383 220.41014099121094" fill-opacity="1" clip-path="url(#NosWVMvWqBVs)" stroke-opacity="1" stroke-linejoin="bevel" stroke-miterlimit="10"/><path fill="rgb(252,79,48)" stroke="rgb(252,79,48)" paint-order="fill" d="M 302.8303791449477 163.81019592285156 A 2.7386127875258306 2.7386127875258306 0 0 1 297.35315356989605 163.81019592285156 A 2.7386127875258306 2.7386127875258306 0 0 1 302.8303791449477 163.81019592285156" fill-opacity="1" clip-path="url(#NosWVMvWqBVs)" stroke-opacity="1" stroke-linejoin="bevel" stroke-miterlimit="10"/><path fill="rgb(229,174,56)" stroke="rgb(229,174,56)" paint-order="fill" d="M 76.53296245793598 173.42401123046875 A 2.7386127875258306 2.7386127875258306 0 0 1 71.05573688288433 173.42401123046875 A 2.7386127875258306 2.7386127875258306 0 0 1 76.53296245793598 173.42401123046875" fill-opacity="1" clip-path="url(#UmsXUhTLnLUa)" stroke-opacity="1" stroke-linejoin="bevel" stroke-miterlimit="10"/><path fill="rgb(229,174,56)" stroke="rgb(229,174,56)" paint-order="fill" d="M 85.25374187688129 123.24530029296875 A 2.7386127875258306 2.7386127875258306 0 0 1 79.77651630182964 123.24530029296875 A 2.7386127875258306 2.7386127875258306 0 0 1 85.25374187688129 123.24530029296875" fill-opacity="1" clip-path="url(#UmsXUhTLnLUa)" stroke-opacity="1" stroke-linejoin="bevel" stroke-miterlimit="10"/><path fill="rgb(229,174,56)" stroke="rgb(229,174,56)" paint-order="fill" d="M 92.61047710637348 70.21015930175781 A 2.7386127875258306 2.7386127875258306 0 0 1 87.13325153132183 70.21015930175781 A 2.7386127875258306 2.7386127875258306 0 0 1 92.61047710637348 70.21015930175781" fill-opacity="1" clip-path="url(#UmsXUhTLnLUa)" stroke-opacity="1" stroke-linejoin="bevel" stroke-miterlimit="10"/><path fill="rgb(229,174,56)" stroke="rgb(229,174,56)" paint-order="fill" d="M 156.76110424260395 218.109375 A 2.7386127875258306 2.7386127875258306 0 0 1 151.2838786675523 218.109375 A 2.7386127875258306 2.7386127875258306 0 0 1 156.76110424260395 218.109375" fill-opacity="1" clip-path="url(#UmsXUhTLnLUa)" stroke-opacity="1" stroke-linejoin="bevel" stroke-miterlimit="10"/><path fill="rgb(229,174,56)" stroke="rgb(229,174,56)" paint-order="fill" d="M 182.204723017018 225.9329833984375 A 2.7386127875258306 2.7386127875258306 0 0 1 176.72749744196636 225.9329833984375 A 2.7386127875258306 2.7386127875258306 0 0 1 182.204723017018 225.9329833984375" fill-opacity="1" clip-path="url(#UmsXUhTLnLUa)" stroke-opacity="1" stroke-linejoin="bevel" stroke-miterlimit="10"/><path fill="rgb(229,174,56)" stroke="rgb(229,174,56)" paint-order="fill" d="M 244.12580455998676 170.90597534179688 A 2.7386127875258306 2.7386127875258306 0 0 1 238.6485789849351 170.90597534179688 A 2.7386127875258306 2.7386127875258306 0 0 1 244.12580455998676 170.90597534179688" fill-opacity="1" clip-path="url(#UmsXUhTLnLUa)" stroke-opacity="1" stroke-linejoin="bevel" stroke-miterlimit="10"/><path fill="rgb(229,174,56)" stroke="rgb(229,174,56)" paint-order="fill" d="M 396.27636303166645 165.39077758789062 A 2.7386127875258306 2.7386127875258306 0 0 1 390.7991374566148 165.39077758789062 A 2.7386127875258306 2.7386127875258306 0 0 1 396.27636303166645 165.39077758789062" fill-opacity="1" clip-path="url(#UmsXUhTLnLUa)" stroke-opacity="1" stroke-linejoin="bevel" stroke-miterlimit="10"/><path fill="rgb(109,144,79)" stroke="rgb(109,144,79)" paint-order="fill" d="M 64.20087780217426 179.45372009277344 A 2.7386127875258306 2.7386127875258306 0 0 1 58.72365222712261 179.45372009277344 A 2.7386127875258306 2.7386127875258306 0 0 1 64.20087780217426 179.45372009277344" fill-opacity="1" clip-path="url(#GUpoEraBRRWV)" stroke-opacity="1" stroke-linejoin="bevel" stroke-miterlimit="10"/><path fill="rgb(109,144,79)" stroke="rgb(109,144,79)" paint-order="fill" d="M 78.60813488225239 171.78323364257812 A 2.7386127875258306 2.7386127875258306 0 0 1 73.13090930720074 171.78323364257812 A 2.7386127875258306 2.7386127875258306 0 0 1 78.60813488225239 171.78323364257812" fill-opacity="1" clip-path="url(#GUpoEraBRRWV)" stroke-opacity="1" stroke-linejoin="bevel" stroke-miterlimit="10"/><path fill="rgb(109,144,79)" stroke="rgb(109,144,79)" paint-order="fill" d="M 220.21578563908832 45.66666793823242 A 2.7386127875258306 2.7386127875258306 0 0 1 214.73856006403668 45.66666793823242 A 2.7386127875258306 2.7386127875258306 0 0 1 220.21578563908832 45.66666793823242" fill-opacity="1" clip-path="url(#GUpoEraBRRWV)" stroke-opacity="1" stroke-linejoin="bevel" stroke-miterlimit="10"/><path fill="rgb(139,139,139)" stroke="rgb(139,139,139)" paint-order="fill" d="M 98.27670635442036 143.10037231445312 A 2.7386127875258306 2.7386127875258306 0 0 1 92.79948077936871 143.10037231445312 A 2.7386127875258306 2.7386127875258306 0 0 1 98.27670635442036 143.10037231445312" fill-opacity="1" clip-path="url(#aLsSqZVafCnC)" stroke-opacity="1" stroke-linejoin="bevel" stroke-miterlimit="10"/><path fill="rgb(139,139,139)" stroke="rgb(139,139,139)" paint-order="fill" d="M 147.07360424260395 237.3333282470703 A 2.7386127875258306 2.7386127875258306 0 0 1 141.5963786675523 237.3333282470703 A 2.7386127875258306 2.7386127875258306 0 0 1 147.07360424260395 237.3333282470703" fill-opacity="1" clip-path="url(#aLsSqZVafCnC)" stroke-opacity="1" stroke-linejoin="bevel" stroke-miterlimit="10"/><path fill="rgb(139,139,139)" stroke="rgb(139,139,139)" paint-order="fill" d="M 172.32235302190082 179.3707733154297 A 2.7386127875258306 2.7386127875258306 0 0 1 166.84512744684918 179.3707733154297 A 2.7386127875258306 2.7386127875258306 0 0 1 172.32235302190082 179.3707733154297" fill-opacity="1" clip-path="url(#aLsSqZVafCnC)" stroke-opacity="1" stroke-linejoin="bevel" stroke-miterlimit="10"/><path fill="none" stroke="black" paint-order="fill" d="M 51.5 256.5 L 403.5 256.5" stroke-linejoin="bevel" stroke-miterlimit="10"/><path fill="none" stroke="black" paint-order="fill" d="M 83.5 262.5 L 83.5 254.5 M 134.5 262.5 L 134.5 254.5 M 184.5 262.5 L 184.5 254.5 M 235.5 262.5 L 235.5 254.5 M 286.5 262.5 L 286.5 254.5 M 336.5 262.5 L 336.5 254.5 M 387.5 262.5 L 387.5 254.5" stroke-linejoin="bevel" stroke-miterlimit="10"/><path fill="none" stroke="black" paint-order="fill" d="M 73.5 260.5 L 73.5 256.5 M 63.5 260.5 L 63.5 256.5 M 53.5 260.5 L 53.5 256.5 M 83.5 260.5 L 83.5 256.5 M 93.5 260.5 L 93.5 256.5 M 103.5 260.5 L 103.5 256.5 M 114.5 260.5 L 114.5 256.5 M 124.5 260.5 L 124.5 256.5 M 134.5 260.5 L 134.5 256.5 M 144.5 260.5 L 144.5 256.5 M 154.5 260.5 L 154.5 256.5 M 164.5 260.5 L 164.5 256.5 M 174.5 260.5 L 174.5 256.5 M 184.5 260.5 L 184.5 256.5 M 195.5 260.5 L 195.5 256.5 M 205.5 260.5 L 205.5 256.5 M 215.5 260.5 L 215.5 256.5 M 225.5 260.5 L 225.5 256.5 M 235.5 260.5 L 235.5 256.5 M 245.5 260.5 L 245.5 256.5 M 255.5 260.5 L 255.5 256.5 M 265.5 260.5 L 265.5 256.5 M 276.5 260.5 L 276.5 256.5 M 286.5 260.5 L 286.5 256.5 M 296.5 260.5 L 296.5 256.5 M 306.5 260.5 L 306.5 256.5 M 316.5 260.5 L 316.5 256.5 M 326.5 260.5 L 326.5 256.5 M 336.5 260.5 L 336.5 256.5 M 346.5 260.5 L 346.5 256.5 M 357.5 260.5 L 357.5 256.5 M 367.5 260.5 L 367.5 256.5 M 377.5 260.5 L 377.5 256.5 M 387.5 260.5 L 387.5 256.5 M 397.5 260.5 L 397.5 256.5" stroke-linejoin="bevel" stroke-miterlimit="10"/><text fill="#444444" stroke="none" font-family="helvetica" font-size="11px" font-style="normal" font-weight="normal" text-decoration="normal" x="74.0523328781128" y="274.89013671875" text-anchor="start" dominant-baseline="alphabetic" transform="matrix(1, 0, 0, 1, 0.5, 0.5)">180</text><text fill="none" stroke="rgb(0,0,0)" font-family="helvetica" font-size="11px" font-style="normal" font-weight="normal" text-decoration="normal" x="74.0523328781128" y="274.89013671875" text-anchor="start" dominant-baseline="alphabetic" transform="matrix(1, 0, 0, 1, 0.5, 0.5)" stroke-opacity="0" stroke-linejoin="bevel" stroke-miterlimit="10">180</text><text fill="#444444" stroke="none" font-family="helvetica" font-size="11px" font-style="normal" font-weight="normal" text-decoration="normal" x="124.66626262664795" y="274.89013671875" text-anchor="start" dominant-baseline="alphabetic" transform="matrix(1, 0, 0, 1, 0.5, 0.5)">200</text><text fill="none" stroke="rgb(0,0,0)" font-family="helvetica" font-size="11px" font-style="normal" font-weight="normal" text-decoration="normal" x="124.66626262664795" y="274.89013671875" text-anchor="start" dominant-baseline="alphabetic" transform="matrix(1, 0, 0, 1, 0.5, 0.5)" stroke-opacity="0" stroke-linejoin="bevel" stroke-miterlimit="10">200</text><text fill="#444444" stroke="none" font-family="helvetica" font-size="11px" font-style="normal" font-weight="normal" text-decoration="normal" x="175.28020000457764" y="274.89013671875" text-anchor="start" dominant-baseline="alphabetic" transform="matrix(1, 0, 0, 1, 0.5, 0.5)">220</text><text fill="none" stroke="rgb(0,0,0)" font-family="helvetica" font-size="11px" font-style="normal" font-weight="normal" text-decoration="normal" x="175.28020000457764" y="274.89013671875" text-anchor="start" dominant-baseline="alphabetic" transform="matrix(1, 0, 0, 1, 0.5, 0.5)" stroke-opacity="0" stroke-linejoin="bevel" stroke-miterlimit="10">220</text><text fill="#444444" stroke="none" font-family="helvetica" font-size="11px" font-style="normal" font-weight="normal" text-decoration="normal" x="225.89412212371826" y="274.89013671875" text-anchor="start" dominant-baseline="alphabetic" transform="matrix(1, 0, 0, 1, 0.5, 0.5)">240</text><text fill="none" stroke="rgb(0,0,0)" font-family="helvetica" font-size="11px" font-style="normal" font-weight="normal" text-decoration="normal" x="225.89412212371826" y="274.89013671875" text-anchor="start" dominant-baseline="alphabetic" transform="matrix(1, 0, 0, 1, 0.5, 0.5)" stroke-opacity="0" stroke-linejoin="bevel" stroke-miterlimit="10">240</text><text fill="#444444" stroke="none" font-family="helvetica" font-size="11px" font-style="normal" font-weight="normal" text-decoration="normal" x="276.5080442428589" y="274.89013671875" text-anchor="start" dominant-baseline="alphabetic" transform="matrix(1, 0, 0, 1, 0.5, 0.5)">260</text><text fill="none" stroke="rgb(0,0,0)" font-family="helvetica" font-size="11px" font-style="normal" font-weight="normal" text-decoration="normal" x="276.5080442428589" y="274.89013671875" text-anchor="start" dominant-baseline="alphabetic" transform="matrix(1, 0, 0, 1, 0.5, 0.5)" stroke-opacity="0" stroke-linejoin="bevel" stroke-miterlimit="10">260</text><text fill="#444444" stroke="none" font-family="helvetica" font-size="11px" font-style="normal" font-weight="normal" text-decoration="normal" x="327.12199687957764" y="274.89013671875" text-anchor="start" dominant-baseline="alphabetic" transform="matrix(1, 0, 0, 1, 0.5, 0.5)">280</text><text fill="none" stroke="rgb(0,0,0)" font-family="helvetica" font-size="11px" font-style="normal" font-weight="normal" text-decoration="normal" x="327.12199687957764" y="274.89013671875" text-anchor="start" dominant-baseline="alphabetic" transform="matrix(1, 0, 0, 1, 0.5, 0.5)" stroke-opacity="0" stroke-linejoin="bevel" stroke-miterlimit="10">280</text><text fill="#444444" stroke="none" font-family="helvetica" font-size="11px" font-style="normal" font-weight="normal" text-decoration="normal" x="377.73591899871826" y="274.89013671875" text-anchor="start" dominant-baseline="alphabetic" transform="matrix(1, 0, 0, 1, 0.5, 0.5)">300</text><text fill="none" stroke="rgb(0,0,0)" font-family="helvetica" font-size="11px" font-style="normal" font-weight="normal" text-decoration="normal" x="377.73591899871826" y="274.89013671875" text-anchor="start" dominant-baseline="alphabetic" transform="matrix(1, 0, 0, 1, 0.5, 0.5)" stroke-opacity="0" stroke-linejoin="bevel" stroke-miterlimit="10">300</text><text fill="#444444" stroke="none" font-family="helvetica" font-size="13px" font-style="italic" font-weight="normal" text-decoration="normal" x="163.43333435058594" y="293.89013671875" text-anchor="start" dominant-baseline="alphabetic" transform="matrix(1, 0, 0, 1, 0.5, 0.5)">SOLAR_LONGITUDE</text><text fill="none" stroke="rgb(0,0,0)" font-family="helvetica" font-size="13px" font-style="italic" font-weight="normal" text-decoration="normal" x="163.43333435058594" y="293.89013671875" text-anchor="start" dominant-baseline="alphabetic" transform="matrix(1, 0, 0, 1, 0.5, 0.5)" stroke-opacity="0" stroke-linejoin="bevel" stroke-miterlimit="10">SOLAR_LONGITUDE</text><path fill="none" stroke="black" paint-order="fill" d="M 51.5 256.5 L 51.5 26.5" stroke-linejoin="bevel" stroke-miterlimit="10"/><path fill="none" stroke="black" paint-order="fill" d="M 45.5 231.5 L 53.5 231.5 M 45.5 195.5 L 53.5 195.5 M 45.5 159.5 L 53.5 159.5 M 45.5 123.5 L 53.5 123.5 M 45.5 87.5 L 53.5 87.5 M 45.5 51.5 L 53.5 51.5" stroke-linejoin="bevel" stroke-miterlimit="10"/><path fill="none" stroke="black" paint-order="fill" d="M 47.5 238.5 L 51.5 238.5 M 47.5 245.5 L 51.5 245.5 M 47.5 253.5 L 51.5 253.5 M 47.5 231.5 L 51.5 231.5 M 47.5 224.5 L 51.5 224.5 M 47.5 217.5 L 51.5 217.5 M 47.5 210.5 L 51.5 210.5 M 47.5 202.5 L 51.5 202.5 M 47.5 195.5 L 51.5 195.5 M 47.5 188.5 L 51.5 188.5 M 47.5 181.5 L 51.5 181.5 M 47.5 174.5 L 51.5 174.5 M 47.5 166.5 L 51.5 166.5 M 47.5 159.5 L 51.5 159.5 M 47.5 152.5 L 51.5 152.5 M 47.5 145.5 L 51.5 145.5 M 47.5 138.5 L 51.5 138.5 M 47.5 130.5 L 51.5 130.5 M 47.5 123.5 L 51.5 123.5 M 47.5 116.5 L 51.5 116.5 M 47.5 109.5 L 51.5 109.5 M 47.5 102.5 L 51.5 102.5 M 47.5 95.5 L 51.5 95.5 M 47.5 87.5 L 51.5 87.5 M 47.5 80.5 L 51.5 80.5 M 47.5 73.5 L 51.5 73.5 M 47.5 66.5 L 51.5 66.5 M 47.5 59.5 L 51.5 59.5 M 47.5 51.5 L 51.5 51.5 M 47.5 44.5 L 51.5 44.5 M 47.5 37.5 L 51.5 37.5 M 47.5 30.5 L 51.5 30.5" stroke-linejoin="bevel" stroke-miterlimit="10"/><text fill="#444444" stroke="none" font-family="helvetica" font-size="11px" font-style="normal" font-weight="normal" text-decoration="normal" x="24.716666221618652" y="235.01832580566406" text-anchor="start" dominant-baseline="alphabetic" transform="matrix(1, 0, 0, 1, 0.5, 0.5)">1.5</text><text fill="none" stroke="rgb(0,0,0)" font-family="helvetica" font-size="11px" font-style="normal" font-weight="normal" text-decoration="normal" x="24.716666221618652" y="235.01832580566406" text-anchor="start" dominant-baseline="alphabetic" transform="matrix(1, 0, 0, 1, 0.5, 0.5)" stroke-opacity="0" stroke-linejoin="bevel" stroke-miterlimit="10">1.5</text><text fill="#444444" stroke="none" font-family="helvetica" font-size="11px" font-style="normal" font-weight="normal" text-decoration="normal" x="33.88333320617676" y="199.09597778320312" text-anchor="start" dominant-baseline="alphabetic" transform="matrix(1, 0, 0, 1, 0.5, 0.5)">2</text><text fill="none" stroke="rgb(0,0,0)" font-family="helvetica" font-size="11px" font-style="normal" font-weight="normal" text-decoration="normal" x="33.88333320617676" y="199.09597778320312" text-anchor="start" dominant-baseline="alphabetic" transform="matrix(1, 0, 0, 1, 0.5, 0.5)" stroke-opacity="0" stroke-linejoin="bevel" stroke-miterlimit="10">2</text><text fill="#444444" stroke="none" font-family="helvetica" font-size="11px" font-style="normal" font-weight="normal" text-decoration="normal" x="24.716666221618652" y="163.1736297607422" text-anchor="start" dominant-baseline="alphabetic" transform="matrix(1, 0, 0, 1, 0.5, 0.5)">2.5</text><text fill="none" stroke="rgb(0,0,0)" font-family="helvetica" font-size="11px" font-style="normal" font-weight="normal" text-decoration="normal" x="24.716666221618652" y="163.1736297607422" text-anchor="start" dominant-baseline="alphabetic" transform="matrix(1, 0, 0, 1, 0.5, 0.5)" stroke-opacity="0" stroke-linejoin="bevel" stroke-miterlimit="10">2.5</text><text fill="#444444" stroke="none" font-family="helvetica" font-size="11px" font-style="normal" font-weight="normal" text-decoration="normal" x="33.88333320617676" y="127.25128173828125" text-anchor="start" dominant-baseline="alphabetic" transform="matrix(1, 0, 0, 1, 0.5, 0.5)">3</text><text fill="none" stroke="rgb(0,0,0)" font-family="helvetica" font-size="11px" font-style="normal" font-weight="normal" text-decoration="normal" x="33.88333320617676" y="127.25128173828125" text-anchor="start" dominant-baseline="alphabetic" transform="matrix(1, 0, 0, 1, 0.5, 0.5)" stroke-opacity="0" stroke-linejoin="bevel" stroke-miterlimit="10">3</text><text fill="#444444" stroke="none" font-family="helvetica" font-size="11px" font-style="normal" font-weight="normal" text-decoration="normal" x="24.716666221618652" y="91.32894134521484" text-anchor="start" dominant-baseline="alphabetic" transform="matrix(1, 0, 0, 1, 0.5, 0.5)">3.5</text><text fill="none" stroke="rgb(0,0,0)" font-family="helvetica" font-size="11px" font-style="normal" font-weight="normal" text-decoration="normal" x="24.716666221618652" y="91.32894134521484" text-anchor="start" dominant-baseline="alphabetic" transform="matrix(1, 0, 0, 1, 0.5, 0.5)" stroke-opacity="0" stroke-linejoin="bevel" stroke-miterlimit="10">3.5</text><text fill="#444444" stroke="none" font-family="helvetica" font-size="11px" font-style="normal" font-weight="normal" text-decoration="normal" x="33.88333320617676" y="55.40658950805664" text-anchor="start" dominant-baseline="alphabetic" transform="matrix(1, 0, 0, 1, 0.5, 0.5)">4</text><text fill="none" stroke="rgb(0,0,0)" font-family="helvetica" font-size="11px" font-style="normal" font-weight="normal" text-decoration="normal" x="33.88333320617676" y="55.40658950805664" text-anchor="start" dominant-baseline="alphabetic" transform="matrix(1, 0, 0, 1, 0.5, 0.5)" stroke-opacity="0" stroke-linejoin="bevel" stroke-miterlimit="10">4</text><text fill="#444444" stroke="none" font-family="helvetica" font-size="13px" font-style="italic" font-weight="normal" text-decoration="normal" x="-21.591668128967285" y="138" text-anchor="start" dominant-baseline="alphabetic" transform="matrix(6.123233995736766e-17, -1, 1, 6.123233995736766e-17, -123.78333377838135, 158.21666622161865)">Homogeneity</text><text fill="none" stroke="rgb(0,0,0)" font-family="helvetica" font-size="13px" font-style="italic" font-weight="normal" text-decoration="normal" x="-21.591668128967285" y="138" text-anchor="start" dominant-baseline="alphabetic" transform="matrix(6.123233995736766e-17, -1, 1, 6.123233995736766e-17, -123.78333377838135, 158.21666622161865)" stroke-opacity="0" stroke-linejoin="bevel" stroke-miterlimit="10">Homogeneity</text><path fill="rgb(255,255,255)" stroke="rgb(229,229,229)" paint-order="fill" d="M 403.5 103.5 L 470.5 103.5 L 470.5 256.5 L 403.5 256.5 L 403.5 103.5 Z" fill-opacity="0.9490196078431372" stroke-opacity="0.5019607843137255" stroke-linejoin="bevel" stroke-miterlimit="10"/><text fill="#444444" stroke="none" font-family="helvetica" font-size="13px" font-style="italic" font-weight="normal" text-decoration="normal" x="414" y="125" text-anchor="start" dominant-baseline="alphabetic" transform="matrix(1, 0, 0, 1, 0.5, 0.5)">MY</text><text fill="none" stroke="rgb(0,0,0)" font-family="helvetica" font-size="13px" font-style="italic" font-weight="normal" text-decoration="normal" x="414" y="125" text-anchor="start" dominant-baseline="alphabetic" transform="matrix(1, 0, 0, 1, 0.5, 0.5)" stroke-opacity="0" stroke-linejoin="bevel" stroke-miterlimit="10">MY</text><g transform="matrix(1, 0, 0, 1, 414, 133)"><path fill="rgb(48,162,218)" stroke="rgb(48,162,218)" paint-order="fill" d="M 14.5 10.5 A 4 4 0 0 1 6.5 10.5 A 4 4 0 0 1 14.5 10.5" fill-opacity="1" stroke-opacity="1" stroke-linejoin="bevel" stroke-miterlimit="10"/></g><text fill="#444444" stroke="none" font-family="helvetica" font-size="8pt" font-style="normal" font-weight="normal" text-decoration="normal" x="439" y="146.81057739257812" text-anchor="start" dominant-baseline="alphabetic" transform="matrix(1, 0, 0, 1, 0.5, 0.5)">28</text><text fill="none" stroke="rgb(0,0,0)" font-family="helvetica" font-size="8pt" font-style="normal" font-weight="normal" text-decoration="normal" x="439" y="146.81057739257812" text-anchor="start" dominant-baseline="alphabetic" transform="matrix(1, 0, 0, 1, 0.5, 0.5)" stroke-opacity="0" stroke-linejoin="bevel" stroke-miterlimit="10">28</text><g transform="matrix(1, 0, 0, 1, 414, 156)"><path fill="rgb(252,79,48)" stroke="rgb(252,79,48)" paint-order="fill" d="M 14.5 10.5 A 4 4 0 0 1 6.5 10.5 A 4 4 0 0 1 14.5 10.5" fill-opacity="1" stroke-opacity="1" stroke-linejoin="bevel" stroke-miterlimit="10"/></g><text fill="#444444" stroke="none" font-family="helvetica" font-size="8pt" font-style="normal" font-weight="normal" text-decoration="normal" x="439" y="169.81057739257812" text-anchor="start" dominant-baseline="alphabetic" transform="matrix(1, 0, 0, 1, 0.5, 0.5)">29</text><text fill="none" stroke="rgb(0,0,0)" font-family="helvetica" font-size="8pt" font-style="normal" font-weight="normal" text-decoration="normal" x="439" y="169.81057739257812" text-anchor="start" dominant-baseline="alphabetic" transform="matrix(1, 0, 0, 1, 0.5, 0.5)" stroke-opacity="0" stroke-linejoin="bevel" stroke-miterlimit="10">29</text><g transform="matrix(1, 0, 0, 1, 414, 179)"><path fill="rgb(229,174,56)" stroke="rgb(229,174,56)" paint-order="fill" d="M 14.5 10.5 A 4 4 0 0 1 6.5 10.5 A 4 4 0 0 1 14.5 10.5" fill-opacity="1" stroke-opacity="1" stroke-linejoin="bevel" stroke-miterlimit="10"/></g><text fill="#444444" stroke="none" font-family="helvetica" font-size="8pt" font-style="normal" font-weight="normal" text-decoration="normal" x="439" y="192.81057739257812" text-anchor="start" dominant-baseline="alphabetic" transform="matrix(1, 0, 0, 1, 0.5, 0.5)">30</text><text fill="none" stroke="rgb(0,0,0)" font-family="helvetica" font-size="8pt" font-style="normal" font-weight="normal" text-decoration="normal" x="439" y="192.81057739257812" text-anchor="start" dominant-baseline="alphabetic" transform="matrix(1, 0, 0, 1, 0.5, 0.5)" stroke-opacity="0" stroke-linejoin="bevel" stroke-miterlimit="10">30</text><g transform="matrix(1, 0, 0, 1, 414, 202)"><path fill="rgb(109,144,79)" stroke="rgb(109,144,79)" paint-order="fill" d="M 14.5 10.5 A 4 4 0 0 1 6.5 10.5 A 4 4 0 0 1 14.5 10.5" fill-opacity="1" stroke-opacity="1" stroke-linejoin="bevel" stroke-miterlimit="10"/></g><text fill="#444444" stroke="none" font-family="helvetica" font-size="8pt" font-style="normal" font-weight="normal" text-decoration="normal" x="439" y="215.81057739257812" text-anchor="start" dominant-baseline="alphabetic" transform="matrix(1, 0, 0, 1, 0.5, 0.5)">31</text><text fill="none" stroke="rgb(0,0,0)" font-family="helvetica" font-size="8pt" font-style="normal" font-weight="normal" text-decoration="normal" x="439" y="215.81057739257812" text-anchor="start" dominant-baseline="alphabetic" transform="matrix(1, 0, 0, 1, 0.5, 0.5)" stroke-opacity="0" stroke-linejoin="bevel" stroke-miterlimit="10">31</text><g transform="matrix(1, 0, 0, 1, 414, 225)"><path fill="rgb(139,139,139)" stroke="rgb(139,139,139)" paint-order="fill" d="M 14.5 10.5 A 4 4 0 0 1 6.5 10.5 A 4 4 0 0 1 14.5 10.5" fill-opacity="1" stroke-opacity="1" stroke-linejoin="bevel" stroke-miterlimit="10"/></g><text fill="#444444" stroke="none" font-family="helvetica" font-size="8pt" font-style="normal" font-weight="normal" text-decoration="normal" x="439" y="238.81057739257812" text-anchor="start" dominant-baseline="alphabetic" transform="matrix(1, 0, 0, 1, 0.5, 0.5)">32</text><text fill="none" stroke="rgb(0,0,0)" font-family="helvetica" font-size="8pt" font-style="normal" font-weight="normal" text-decoration="normal" x="439" y="238.81057739257812" text-anchor="start" dominant-baseline="alphabetic" transform="matrix(1, 0, 0, 1, 0.5, 0.5)" stroke-opacity="0" stroke-linejoin="bevel" stroke-miterlimit="10">32</text><text fill="#444444" stroke="none" font-family="helvetica" font-size="13px" font-style="normal" font-weight="bold" text-decoration="normal" x="0" y="11" text-anchor="start" dominant-baseline="alphabetic" transform="matrix(1, 0, 0, 1, 51.5, 7.5)">Inca City Homogeneity Scatter Plot</text><text fill="none" stroke="rgb(0,0,0)" font-family="helvetica" font-size="13px" font-style="normal" font-weight="bold" text-decoration="normal" x="0" y="11" text-anchor="start" dominant-baseline="alphabetic" transform="matrix(1, 0, 0, 1, 51.5, 7.5)" stroke-opacity="0" stroke-linejoin="bevel" stroke-miterlimit="10">Inca City Homogeneity Scatter Plot</text></svg>