<svg version="1.1" xmlns="http://www.w3.org/2000/svg" width="1000" height="300"><defs><clipPath id="TRySRNawCzzp"><path fill="none" stroke="none" d="M 0.5 0.5 L 1000.5 0.5 L 1000.5 300.5 L 0.5 300.5 L 0.5 0.5 Z M 51.5 26.5 L 403.5 26.5 L 403.5 256.5 L 51.5 256.5 L 51.5 26.5 Z" clip-rule="evenodd"/></clipPath><clipPath id="XzZQleSKIWZv"><path fill="none" stroke="none" d="M 51.5 26.5 L 403.5 26.5 L 403.5 256.5 L 51.5 256.5 L 51.5 26.5 Z"/></clipPath><clipPath id="NwFEOqihFRUF"><path fill="none" stroke="none" d="M 51.5 26.5 L 403.5 26.5 L 403.5 256.5 L 51.5 256.5 L 51.5 26.5 Z"/></clipPath><clipPath id="qUlRIAMIgfws"><path fill="none" stroke="none" d="M 51.5 26.5 L 403.5 26.5 L 403.5 256.5 L 51.5 256.5 L 51.5 26.5 Z"/></clipPath><clipPath id="QkofyiqTwhqK"><path fill="none" stroke="none" d="M 51.5 26.5 L 403.5 26.5 L 403.5 256.5 L 51.5 256.5 L 51.5 26.5 Z"/></clipPath><clipPath id="ciwtvCxVbxsV"><path fill="none" stroke="none" d="M 51.5 26.5 L 403.5 26.5 L 403.5 256.5 L 51.5 256.5 L 51.5 26.5 Z"/></clipPath><clipPath id="mPZGoOfaouOb"><path fill="none" stroke="none" d="M 51.5 26.5 L 403.5 26.5 L 403.5 256.5 L 51.5 256.5 L 51.5 26.5 Z"/></clipPath><clipPath id="MogaSKitkOXU"><path fill="none" stroke="none" d="M 51.5 26.5 L 403.5 26.5 L 403.5 256.5 L 51.5 256.5 L 51.5 26.5 Z"/></clipPath><clipPath id="zbyQCZclfUtW"><path fill="none" stroke="none" d="M 51.5 26.5 L 403.5 26.5 L 403.5 256.5 L 51.5 256.5 L 51.5 26.5 Z"/></clipPath></defs><path fill="#ffffff" stroke="none" paint-order="stroke" d="M 0.5 0.5 L 1000.5 0.5 L 1000.5 300.5 L 0.5 300.5 L 0.5 0.5 Z" clip-path="url(#TRySRNawCzzp)"/><path fill="#ffffff" stroke="none" paint-order="stroke" d="M 51.5 26.5 L 403.5 26.5 L 403.5 256.5 L 51.5 256.5 L 51.5 26.5 Z"/><path fill="none" stroke="#e5e5e5" paint-order="fill" d="M 51.5 26.5 L 403.5 26.5 L 403.5 256.5 L 51.5 256.5 L 51.5 26.5 Z" stroke-linejoin="bevel" stroke-miterlimit="10"/><path fill="rgb(48,162,218)" stroke="rgb(48,162,218)" paint-order="fill" d="M 69.09114422063129 228.5599822998047 A 2.7386127875258306 2.7386127875258306 0 0 1 63.61391864557964 228.5599822998047 A 2.7386127875258306 2.7386127875258306 0 0 1 69.09114422063129 228.5599822998047" fill-opacity="1" clip-path="url(#qUlRIAMIgfws)" stroke-opacity="1" stroke-linejoin="bevel" stroke-miterlimit="10"/><path fill="rgb(48,162,218)" stroke="rgb(48,162,218)" paint-order="fill" d="M 69.19089855412739 237.3333282470703 A 2.7386127875258306 2.7386127875258306 0 0 1 63.71367297907573 237.3333282470703 A 2.7386127875258306 2.7386127875258306 0 0 1 69.19089855412739 237.3333282470703" fill-opacity="1" clip-path="url(#qUlRIAMIgfws)" stroke-opacity="1" stroke-linejoin="bevel" stroke-miterlimit="10"/><path fill="rgb(48,162,218)" stroke="rgb(48,162,218)" paint-order="fill" d="M 78.53839458684223 212.67530822753906 A 2.7386127875258306 2.7386127875258306 0 0 1 73.06116901179058 212.67530822753906 A 2.7386127875258306 2.7386127875258306 0 0 1 78.53839458684223 212.67530822753906" fill-opacity="1" clip-path="url(#qUlRIAMIgfws)" stroke-opacity="1" stroke-linejoin="bevel" stroke-miterlimit="10"/><path fill="rgb(48,162,218)" stroke="rgb(48,162,218)" paint-order="fill" d="M 101.50926555852192 211.7362518310547 A 2.7386127875258306 2.7386127875258306 0 0 1 96.03203998347027 211.7362518310547 A 2.7386127875258306 2.7386127875258306 0 0 1 101.50926555852192 211.7362518310547" fill-opacity="1" clip-path="url(#qUlRIAMIgfws)" stroke-opacity="1" stroke-linejoin="bevel" stroke-miterlimit="10"/><path fill="rgb(48,162,218)" stroke="rgb(48,162,218)" paint-order="fill" d="M 104.21398510197895 194.65530395507812 A 2.7386127875258306 2.7386127875258306 0 0 1 98.7367595269273 194.65530395507812 A 2.7386127875258306 2.7386127875258306 0 0 1 104.21398510197895 194.65530395507812" fill-opacity="1" clip-path="url(#qUlRIAMIgfws)" stroke-opacity="1" stroke-linejoin="bevel" stroke-miterlimit="10"/><path fill="rgb(48,162,218)" stroke="rgb(48,162,218)" paint-order="fill" d="M 111.12202038029926 206.33177185058594 A 2.7386127875258306 2.7386127875258306 0 0 1 105.64479480524761 206.33177185058594 A 2.7386127875258306 2.7386127875258306 0 0 1 111.12202038029926 206.33177185058594" fill-opacity="1" clip-path="url(#qUlRIAMIgfws)" stroke-opacity="1" stroke-linejoin="bevel" stroke-miterlimit="10"/><path fill="rgb(48,162,218)" stroke="rgb(48,162,218)" paint-order="fill" d="M 170.90249218205707 178.87049865722656 A 2.7386127875258306 2.7386127875258306 0 0 1 165.42526660700543 178.87049865722656 A 2.7386127875258306 2.7386127875258306 0 0 1 170.90249218205707 178.87049865722656" fill-opacity="1" clip-path="url(#qUlRIAMIgfws)" stroke-opacity="1" stroke-linejoin="bevel" stroke-miterlimit="10"/><path fill="rgb(48,162,218)" stroke="rgb(48,162,218)" paint-order="fill" d="M 179.64013256291645 214.5878448486328 A 2.7386127875258306 2.7386127875258306 0 0 1 174.1629069878648 214.5878448486328 A 2.7386127875258306 2.7386127875258306 0 0 1 179.64013256291645 214.5878448486328" fill-opacity="1" clip-path="url(#qUlRIAMIgfws)" stroke-opacity="1" stroke-linejoin="bevel" stroke-miterlimit="10"/><path fill="rgb(48,162,218)" stroke="rgb(48,162,218)" paint-order="fill" d="M 186.96532787541645 232.53369140625 A 2.7386127875258306 2.7386127875258306 0 0 1 181.4881023003648 232.53369140625 A 2.7386127875258306 2.7386127875258306 0 0 1 186.96532787541645 232.53369140625" fill-opacity="1" clip-path="url(#qUlRIAMIgfws)" stroke-opacity="1" stroke-linejoin="bevel" stroke-miterlimit="10"/><path fill="rgb(48,162,218)" stroke="rgb(48,162,218)" paint-order="fill" d="M 396.27636303166645 162.28207397460938 A 2.7386127875258306 2.7386127875258306 0 0 1 390.7991374566148 162.28207397460938 A 2.7386127875258306 2.7386127875258306 0 0 1 396.27636303166645 162.28207397460938" fill-opacity="1" clip-path="url(#qUlRIAMIgfws)" stroke-opacity="1" stroke-linejoin="bevel" stroke-miterlimit="10"/><path fill="rgb(252,79,48)" stroke="rgb(252,79,48)" paint-order="fill" d="M 73.73202099065082 214.37869262695312 A 2.7386127875258306 2.7386127875258306 0 0 1 68.25479541559918 214.37869262695312 A 2.7386127875258306 2.7386127875258306 0 0 1 73.73202099065082 214.37869262695312" fill-opacity="1" clip-path="url(#QkofyiqTwhqK)" stroke-opacity="1" stroke-linejoin="bevel" stroke-miterlimit="10"/><path fill="rgb(252,79,48)" stroke="rgb(252,79,48)" paint-order="fill" d="M 102.06471599797504 219.5735626220703 A 2.7386127875258306 2.7386127875258306 0 0 1 96.5874904229234 219.5735626220703 A 2.7386127875258306 2.7386127875258306 0 0 1 102.06471599797504 219.5735626220703" fill-opacity="1" clip-path="url(#QkofyiqTwhqK)" stroke-opacity="1" stroke-linejoin="bevel" stroke-miterlimit="10"/><path fill="rgb(252,79,48)" stroke="rgb(252,79,48)" paint-order="fill" d="M 132.72126354436176 223.0960693359375 A 2.7386127875258306 2.7386127875258306 0 0 1 127.24403796931011 223.0960693359375 A 2.7386127875258306 2.7386127875258306 0 0 1 132.72126354436176 223.0960693359375" fill-opacity="1" clip-path="url(#QkofyiqTwhqK)" stroke-opacity="1" stroke-linejoin="bevel" stroke-miterlimit="10"/><path fill="rgb(252,79,48)" stroke="rgb(252,79,48)" paint-order="fill" d="M 164.2370411322524 206.85659790039062 A 2.7386127875258306 2.7386127875258306 0 0 1 158.75981555720074 206.85659790039062 A 2.7386127875258306 2.7386127875258306 0 0 1 164.2370411322524 206.85659790039062" fill-opacity="1" clip-path="url(#QkofyiqTwhqK)" stroke-opacity="1" stroke-linejoin="bevel" stroke-miterlimit="10"/><path fill="rgb(252,79,48)" stroke="rgb(252,79,48)" paint-order="fill" d="M 218.54006542424457 229.11952209472656 A 2.7386127875258306 2.7386127875258306 0 0 1 213.06283984919293 229.11952209472656 A 2.7386127875258306 2.7386127875258306 0 0 1 218.54006542424457 229.11952209472656" fill-opacity="1" clip-path="url(#QkofyiqTwhqK)" stroke-opacity="1" stroke-linejoin="bevel" stroke-miterlimit="10"/><path fill="rgb(252,79,48)" stroke="rgb(252,79,48)" paint-order="fill" d="M 234.80013622502582 210.8304901123047 A 2.7386127875258306 2.7386127875258306 0 0 1 229.32291064997418 210.8304901123047 A 2.7386127875258306 2.7386127875258306 0 0 1 234.80013622502582 210.8304901123047" fill-opacity="1" clip-path="url(#QkofyiqTwhqK)" stroke-opacity="1" stroke-linejoin="bevel" stroke-miterlimit="10"/><path fill="rgb(252,79,48)" stroke="rgb(252,79,48)" paint-order="fill" d="M 249.5842853949477 213.98974609375 A 2.7386127875258306 2.7386127875258306 0 0 1 244.10705981989605 213.98974609375 A 2.7386127875258306 2.7386127875258306 0 0 1 249.5842853949477 213.98974609375" fill-opacity="1" clip-path="url(#QkofyiqTwhqK)" stroke-opacity="1" stroke-linejoin="bevel" stroke-miterlimit="10"/><path fill="rgb(252,79,48)" stroke="rgb(252,79,48)" paint-order="fill" d="M 258.4126087592055 168.88546752929688 A 2.7386127875258306 2.7386127875258306 0 0 1 252.93538318415386 168.88546752929688 A 2.7386127875258306 2.7386127875258306 0 0 1 258.4126087592055 168.88546752929688" fill-opacity="1" clip-path="url(#QkofyiqTwhqK)" stroke-opacity="1" stroke-linejoin="bevel" stroke-miterlimit="10"/><path fill="rgb(229,174,56)" stroke="rgb(229,174,56)" paint-order="fill" d="M 72.89543499211567 219.1653594970703 A 2.7386127875258306 2.7386127875258306 0 0 1 67.41820941706402 219.1653594970703 A 2.7386127875258306 2.7386127875258306 0 0 1 72.89543499211567 219.1653594970703" fill-opacity="1" clip-path="url(#ciwtvCxVbxsV)" stroke-opacity="1" stroke-linejoin="bevel" stroke-miterlimit="10"/><path fill="rgb(229,174,56)" stroke="rgb(229,174,56)" paint-order="fill" d="M 74.10156597356098 183.52760314941406 A 2.7386127875258306 2.7386127875258306 0 0 1 68.62434039850933 183.52760314941406 A 2.7386127875258306 2.7386127875258306 0 0 1 74.10156597356098 183.52760314941406" fill-opacity="1" clip-path="url(#ciwtvCxVbxsV)" stroke-opacity="1" stroke-linejoin="bevel" stroke-miterlimit="10"/><path fill="rgb(229,174,56)" stroke="rgb(229,174,56)" paint-order="fill" d="M 84.93405498723286 206.33360290527344 A 2.7386127875258306 2.7386127875258306 0 0 1 79.45682941218121 206.33360290527344 A 2.7386127875258306 2.7386127875258306 0 0 1 84.93405498723286 206.33360290527344" fill-opacity="1" clip-path="url(#ciwtvCxVbxsV)" stroke-opacity="1" stroke-linejoin="bevel" stroke-miterlimit="10"/><path fill="rgb(229,174,56)" stroke="rgb(229,174,56)" paint-order="fill" d="M 105.35889782170551 222.03790283203125 A 2.7386127875258306 2.7386127875258306 0 0 1 99.88167224665386 222.03790283203125 A 2.7386127875258306 2.7386127875258306 0 0 1 105.35889782170551 222.03790283203125" fill-opacity="1" clip-path="url(#ciwtvCxVbxsV)" stroke-opacity="1" stroke-linejoin="bevel" stroke-miterlimit="10"/><path fill="rgb(229,174,56)" stroke="rgb(229,174,56)" paint-order="fill" d="M 113.64083446721332 232.60159301757812 A 2.7386127875258306 2.7386127875258306 0 0 1 108.16360889216168 232.60159301757812 A 2.7386127875258306 2.7386127875258306 0 0 1 113.64083446721332 232.60159301757812" fill-opacity="1" clip-path="url(#ciwtvCxVbxsV)" stroke-opacity="1" stroke-linejoin="bevel" stroke-miterlimit="10"/><path fill="rgb(229,174,56)" stroke="rgb(229,174,56)" paint-order="fill" d="M 151.81301464299457 213.95391845703125 A 2.7386127875258306 2.7386127875258306 0 0 1 146.33578906794293 213.95391845703125 A 2.7386127875258306 2.7386127875258306 0 0 1 151.81301464299457 213.95391845703125" fill-opacity="1" clip-path="url(#ciwtvCxVbxsV)" stroke-opacity="1" stroke-linejoin="bevel" stroke-miterlimit="10"/><path fill="rgb(229,174,56)" stroke="rgb(229,174,56)" paint-order="fill" d="M 207.2722736761977 227.93885803222656 A 2.7386127875258306 2.7386127875258306 0 0 1 201.79504810114605 227.93885803222656 A 2.7386127875258306 2.7386127875258306 0 0 1 207.2722736761977 227.93885803222656" fill-opacity="1" clip-path="url(#ciwtvCxVbxsV)" stroke-opacity="1" stroke-linejoin="bevel" stroke-miterlimit="10"/><path fill="rgb(229,174,56)" stroke="rgb(229,174,56)" paint-order="fill" d="M 211.74991955022114 219.8766326904297 A 2.7386127875258306 2.7386127875258306 0 0 1 206.2726939751695 219.8766326904297 A 2.7386127875258306 2.7386127875258306 0 0 1 211.74991955022114 219.8766326904297" fill-opacity="1" clip-path="url(#ciwtvCxVbxsV)" stroke-opacity="1" stroke-linejoin="bevel" stroke-miterlimit="10"/><path fill="rgb(229,174,56)" stroke="rgb(229,174,56)" paint-order="fill" d="M 296.9770161078383 45.66666793823242 A 2.7386127875258306 2.7386127875258306 0 0 1 291.4997905327867 45.66666793823242 A 2.7386127875258306 2.7386127875258306 0 0 1 296.9770161078383 45.66666793823242" fill-opacity="1" clip-path="url(#ciwtvCxVbxsV)" stroke-opacity="1" stroke-linejoin="bevel" stroke-miterlimit="10"/><path fill="rgb(109,144,79)" stroke="rgb(109,144,79)" paint-order="fill" d="M 64.20087780217426 232.46966552734375 A 2.7386127875258306 2.7386127875258306 0 0 1 58.72365222712261 232.46966552734375 A 2.7386127875258306 2.7386127875258306 0 0 1 64.20087780217426 232.46966552734375" fill-opacity="1" clip-path="url(#mPZGoOfaouOb)" stroke-opacity="1" stroke-linejoin="bevel" stroke-miterlimit="10"/><path fill="rgb(109,144,79)" stroke="rgb(109,144,79)" paint-order="fill" d="M 64.30063213567036 231.93055725097656 A 2.7386127875258306 2.7386127875258306 0 0 1 58.8234065606187 231.93055725097656 A 2.7386127875258306 2.7386127875258306 0 0 1 64.30063213567036 231.93055725097656" fill-opacity="1" clip-path="url(#mPZGoOfaouOb)" stroke-opacity="1" stroke-linejoin="bevel" stroke-miterlimit="10"/><path fill="rgb(109,144,79)" stroke="rgb(109,144,79)" paint-order="fill" d="M 74.79758037785786 233.68907165527344 A 2.7386127875258306 2.7386127875258306 0 0 1 69.32035480280621 233.68907165527344 A 2.7386127875258306 2.7386127875258306 0 0 1 74.79758037785786 233.68907165527344" fill-opacity="1" clip-path="url(#mPZGoOfaouOb)" stroke-opacity="1" stroke-linejoin="bevel" stroke-miterlimit="10"/><path fill="rgb(109,144,79)" stroke="rgb(109,144,79)" paint-order="fill" d="M 80.14808239201801 217.93182373046875 A 2.7386127875258306 2.7386127875258306 0 0 1 74.67085681696636 217.93182373046875 A 2.7386127875258306 2.7386127875258306 0 0 1 80.14808239201801 217.93182373046875" fill-opacity="1" clip-path="url(#mPZGoOfaouOb)" stroke-opacity="1" stroke-linejoin="bevel" stroke-miterlimit="10"/><path fill="rgb(109,144,79)" stroke="rgb(109,144,79)" paint-order="fill" d="M 101.81079448918598 223.8194580078125 A 2.7386127875258306 2.7386127875258306 0 0 1 96.33356891413433 223.8194580078125 A 2.7386127875258306 2.7386127875258306 0 0 1 101.81079448918598 223.8194580078125" fill-opacity="1" clip-path="url(#mPZGoOfaouOb)" stroke-opacity="1" stroke-linejoin="bevel" stroke-miterlimit="10"/><path fill="rgb(109,144,79)" stroke="rgb(109,144,79)" paint-order="fill" d="M 131.06396068791645 186.98724365234375 A 2.7386127875258306 2.7386127875258306 0 0 1 125.5867351128648 186.98724365234375 A 2.7386127875258306 2.7386127875258306 0 0 1 131.06396068791645 186.98724365234375" fill-opacity="1" clip-path="url(#mPZGoOfaouOb)" stroke-opacity="1" stroke-linejoin="bevel" stroke-miterlimit="10"/><path fill="rgb(109,144,79)" stroke="rgb(109,144,79)" paint-order="fill" d="M 139.5590168402602 183.41075134277344 A 2.7386127875258306 2.7386127875258306 0 0 1 134.08179126520855 183.41075134277344 A 2.7386127875258306 2.7386127875258306 0 0 1 139.5590168402602 183.41075134277344" fill-opacity="1" clip-path="url(#mPZGoOfaouOb)" stroke-opacity="1" stroke-linejoin="bevel" stroke-miterlimit="10"/><path fill="rgb(109,144,79)" stroke="rgb(109,144,79)" paint-order="fill" d="M 169.7983967230727 184.42266845703125 A 2.7386127875258306 2.7386127875258306 0 0 1 164.32117114802105 184.42266845703125 A 2.7386127875258306 2.7386127875258306 0 0 1 169.7983967230727 184.42266845703125" fill-opacity="1" clip-path="url(#mPZGoOfaouOb)" stroke-opacity="1" stroke-linejoin="bevel" stroke-miterlimit="10"/><path fill="rgb(139,139,139)" stroke="rgb(139,139,139)" paint-order="fill" d="M 86.0018879340102 197.37261962890625 A 2.7386127875258306 2.7386127875258306 0 0 1 80.52466235895855 197.37261962890625 A 2.7386127875258306 2.7386127875258306 0 0 1 86.0018879340102 197.37261962890625" fill-opacity="1" clip-path="url(#MogaSKitkOXU)" stroke-opacity="1" stroke-linejoin="bevel" stroke-miterlimit="10"/><path fill="rgb(139,139,139)" stroke="rgb(139,139,139)" paint-order="fill" d="M 105.0981785223891 204.99168395996094 A 2.7386127875258306 2.7386127875258306 0 0 1 99.62095294733746 204.99168395996094 A 2.7386127875258306 2.7386127875258306 0 0 1 105.0981785223891 204.99168395996094" fill-opacity="1" clip-path="url(#MogaSKitkOXU)" stroke-opacity="1" stroke-linejoin="bevel" stroke-miterlimit="10"/><path fill="rgb(139,139,139)" stroke="rgb(139,139,139)" paint-order="fill" d="M 112.01301922063129 226.5540313720703 A 2.7386127875258306 2.7386127875258306 0 0 1 106.53579364557964 226.5540313720703 A 2.7386127875258306 2.7386127875258306 0 0 1 112.01301922063129 226.5540313720703" fill-opacity="1" clip-path="url(#MogaSKitkOXU)" stroke-opacity="1" stroke-linejoin="bevel" stroke-miterlimit="10"/><path fill="rgb(139,139,139)" stroke="rgb(139,139,139)" paint-order="fill" d="M 141.5563770697524 173.4159393310547 A 2.7386127875258306 2.7386127875258306 0 0 1 136.07915149470074 173.4159393310547 A 2.7386127875258306 2.7386127875258306 0 0 1 141.5563770697524 173.4159393310547" fill-opacity="1" clip-path="url(#MogaSKitkOXU)" stroke-opacity="1" stroke-linejoin="bevel" stroke-miterlimit="10"/><path fill="rgb(139,139,139)" stroke="rgb(139,139,139)" paint-order="fill" d="M 177.68810619572895 214.11288452148438 A 2.7386127875258306 2.7386127875258306 0 0 1 172.2108806206773 214.11288452148438 A 2.7386127875258306 2.7386127875258306 0 0 1 177.68810619572895 214.11288452148438" fill-opacity="1" clip-path="url(#MogaSKitkOXU)" stroke-opacity="1" stroke-linejoin="bevel" stroke-miterlimit="10"/><path fill="rgb(139,139,139)" stroke="rgb(139,139,139)" paint-order="fill" d="M 249.91076244572895 166.75595092773438 A 2.7386127875258306 2.7386127875258306 0 0 1 244.4335368706773 166.75595092773438 A 2.7386127875258306 2.7386127875258306 0 0 1 249.91076244572895 166.75595092773438" fill-opacity="1" clip-path="url(#MogaSKitkOXU)" stroke-opacity="1" stroke-linejoin="bevel" stroke-miterlimit="10"/><path fill="rgb(139,139,139)" stroke="rgb(139,139,139)" paint-order="fill" d="M 258.73908580998676 181.51097106933594 A 2.7386127875258306 2.7386127875258306 0 0 1 253.2618602349351 181.51097106933594 A 2.7386127875258306 2.7386127875258306 0 0 1 258.73908580998676 181.51097106933594" fill-opacity="1" clip-path="url(#MogaSKitkOXU)" stroke-opacity="1" stroke-linejoin="bevel" stroke-miterlimit="10"/><path fill="rgb(139,139,139)" stroke="rgb(139,139,139)" paint-order="fill" d="M 289.45910228947895 119.96265411376953 A 2.7386127875258306 2.7386127875258306 0 0 1 283.9818767144273 119.96265411376953 A 2.7386127875258306 2.7386127875258306 0 0 1 289.45910228947895 119.96265411376953" fill-opacity="1" clip-path="url(#MogaSKitkOXU)" stroke-opacity="1" stroke-linejoin="bevel" stroke-miterlimit="10"/><path fill="rgb(139,139,139)" stroke="rgb(139,139,139)" paint-order="fill" d="M 305.3337665961196 189.7032470703125 A 2.7386127875258306 2.7386127875258306 0 0 1 299.8565410210679 189.7032470703125 A 2.7386127875258306 2.7386127875258306 0 0 1 305.3337665961196 189.7032470703125" fill-opacity="1" clip-path="url(#MogaSKitkOXU)" stroke-opacity="1" stroke-linejoin="bevel" stroke-miterlimit="10"/><path fill="rgb(139,139,139)" stroke="rgb(139,139,139)" paint-order="fill" d="M 335.1151691840102 206.1000213623047 A 2.7386127875258306 2.7386127875258306 0 0 1 329.63794360895855 206.1000213623047 A 2.7386127875258306 2.7386127875258306 0 0 1 335.1151691840102 206.1000213623047" fill-opacity="1" clip-path="url(#MogaSKitkOXU)" stroke-opacity="1" stroke-linejoin="bevel" stroke-miterlimit="10"/><path fill="none" stroke="black" paint-order="fill" d="M 51.5 256.5 L 403.5 256.5" stroke-linejoin="bevel" stroke-miterlimit="10"/><path fill="none" stroke="black" paint-order="fill" d="M 63.5 262.5 L 63.5 254.5 M 109.5 262.5 L 109.5 254.5 M 154.5 262.5 L 154.5 254.5 M 199.5 262.5 L 199.5 254.5 M 245.5 262.5 L 245.5 254.5 M 290.5 262.5 L 290.5 254.5 M 335.5 262.5 L 335.5 254.5 M 381.5 262.5 L 381.5 254.5" stroke-linejoin="bevel" stroke-miterlimit="10"/><path fill="none" stroke="black" paint-order="fill" d="M 54.5 260.5 L 54.5 256.5 M 63.5 260.5 L 63.5 256.5 M 72.5 260.5 L 72.5 256.5 M 81.5 260.5 L 81.5 256.5 M 91.5 260.5 L 91.5 256.5 M 100.5 260.5 L 100.5 256.5 M 109.5 260.5 L 109.5 256.5 M 118.5 260.5 L 118.5 256.5 M 127.5 260.5 L 127.5 256.5 M 136.5 260.5 L 136.5 256.5 M 145.5 260.5 L 145.5 256.5 M 154.5 260.5 L 154.5 256.5 M 163.5 260.5 L 163.5 256.5 M 172.5 260.5 L 172.5 256.5 M 181.5 260.5 L 181.5 256.5 M 190.5 260.5 L 190.5 256.5 M 199.5 260.5 L 199.5 256.5 M 208.5 260.5 L 208.5 256.5 M 218.5 260.5 L 218.5 256.5 M 227.5 260.5 L 227.5 256.5 M 236.5 260.5 L 236.5 256.5 M 245.5 260.5 L 245.5 256.5 M 254.5 260.5 L 254.5 256.5 M 263.5 260.5 L 263.5 256.5 M 272.5 260.5 L 272.5 256.5 M 281.5 260.5 L 281.5 256.5 M 290.5 260.5 L 290.5 256.5 M 299.5 260.5 L 299.5 256.5 M 308.5 260.5 L 308.5 256.5 M 317.5 260.5 L 317.5 256.5 M 326.5 260.5 L 326.5 256.5 M 335.5 260.5 L 335.5 256.5 M 344.5 260.5 L 344.5 256.5 M 354.5 260.5 L 354.5 256.5 M 363.5 260.5 L 363.5 256.5 M 372.5 260.5 L 372.5 256.5 M 381.5 260.5 L 381.5 256.5 M 390.5 260.5 L 390.5 256.5 M 399.5 260.5 L 399.5 256.5" stroke-linejoin="bevel" stroke-miterlimit="10"/><text fill="#444444" stroke="none" font-family="helvetica" font-size="11px" font-style="normal" font-weight="normal" text-decoration="normal" x="54.176852226257324" y="274.89013671875" text-anchor="start" dominant-baseline="alphabetic" transform="matrix(1, 0, 0, 1, 0.5, 0.5)">180</text><text fill="none" stroke="rgb(0,0,0)" font-family="helvetica" font-size="11px" font-style="normal" font-weight="normal" text-decoration="normal" x="54.176852226257324" y="274.89013671875" text-anchor="start" dominant-baseline="alphabetic" transform="matrix(1, 0, 0, 1, 0.5, 0.5)" stroke-opacity="0" stroke-linejoin="bevel" stroke-miterlimit="10">180</text><text fill="#444444" stroke="none" font-family="helvetica" font-size="11px" font-style="normal" font-weight="normal" text-decoration="normal" x="99.52005290985107" y="274.89013671875" text-anchor="start" dominant-baseline="alphabetic" transform="matrix(1, 0, 0, 1, 0.5, 0.5)">200</text><text fill="none" stroke="rgb(0,0,0)" font-family="helvetica" font-size="11px" font-style="normal" font-weight="normal" text-decoration="normal" x="99.52005290985107" y="274.89013671875" text-anchor="start" dominant-baseline="alphabetic" transform="matrix(1, 0, 0, 1, 0.5, 0.5)" stroke-opacity="0" stroke-linejoin="bevel" stroke-miterlimit="10">200</text><text fill="#444444" stroke="none" font-family="helvetica" font-size="11px" font-style="normal" font-weight="normal" text-decoration="normal" x="144.86325359344482" y="274.89013671875" text-anchor="start" dominant-baseline="alphabetic" transform="matrix(1, 0, 0, 1, 0.5, 0.5)">220</text><text fill="none" stroke="rgb(0,0,0)" font-family="helvetica" font-size="11px" font-style="normal" font-weight="normal" text-decoration="normal" x="144.86325359344482" y="274.89013671875" text-anchor="start" dominant-baseline="alphabetic" transform="matrix(1, 0, 0, 1, 0.5, 0.5)" stroke-opacity="0" stroke-linejoin="bevel" stroke-miterlimit="10">220</text><text fill="#444444" stroke="none" font-family="helvetica" font-size="11px" font-style="normal" font-weight="normal" text-decoration="normal" x="190.20645427703857" y="274.89013671875" text-anchor="start" dominant-baseline="alphabetic" transform="matrix(1, 0, 0, 1, 0.5, 0.5)">240</text><text fill="none" stroke="rgb(0,0,0)" font-family="helvetica" font-size="11px" font-style="normal" font-weight="normal" text-decoration="normal" x="190.20645427703857" y="274.89013671875" text-anchor="start" dominant-baseline="alphabetic" transform="matrix(1, 0, 0, 1, 0.5, 0.5)" stroke-opacity="0" stroke-linejoin="bevel" stroke-miterlimit="10">240</text><text fill="#444444" stroke="none" font-family="helvetica" font-size="11px" font-style="normal" font-weight="normal" text-decoration="normal" x="235.54965496063232" y="274.89013671875" text-anchor="start" dominant-baseline="alphabetic" transform="matrix(1, 0, 0, 1, 0.5, 0.5)">260</text><text fill="none" stroke="rgb(0,0,0)" font-family="helvetica" font-size="11px" font-style="normal" font-weight="normal" text-decoration="normal" x="235.54965496063232" y="274.89013671875" text-anchor="start" dominant-baseline="alphabetic" transform="matrix(1, 0, 0, 1, 0.5, 0.5)" stroke-opacity="0" stroke-linejoin="bevel" stroke-miterlimit="10">260</text><text fill="#444444" stroke="none" font-family="helvetica" font-size="11px" font-style="normal" font-weight="normal" text-decoration="normal" x="280.89287090301514" y="274.89013671875" text-anchor="start" dominant-baseline="alphabetic" transform="matrix(1, 0, 0, 1, 0.5, 0.5)">280</text><text fill="none" stroke="rgb(0,0,0)" font-family="helvetica" font-size="11px" font-style="normal" font-weight="normal" text-decoration="normal" x="280.89287090301514" y="274.89013671875" text-anchor="start" dominant-baseline="alphabetic" transform="matrix(1, 0, 0, 1, 0.5, 0.5)" stroke-opacity="0" stroke-linejoin="bevel" stroke-miterlimit="10">280</text><text fill="#444444" stroke="none" font-family="helvetica" font-size="11px" font-style="normal" font-weight="normal" text-decoration="normal" x="326.2360715866089" y="274.89013671875" text-anchor="start" dominant-baseline="alphabetic" transform="matrix(1, 0, 0, 1, 0.5, 0.5)">300</text><text fill="none" stroke="rgb(0,0,0)" font-family="helvetica" font-size="11px" font-style="normal" font-weight="normal" text-decoration="normal" x="326.2360715866089" y="274.89013671875" text-anchor="start" dominant-baseline="alphabetic" transform="matrix(1, 0, 0, 1, 0.5, 0.5)" stroke-opacity="0" stroke-linejoin="bevel" stroke-miterlimit="10">300</text><text fill="#444444" stroke="none" font-family="helvetica" font-size="11px" font-style="normal" font-weight="normal" text-decoration="normal" x="371.57927227020264" y="274.89013671875" text-anchor="start" dominant-baseline="alphabetic" transform="matrix(1, 0, 0, 1, 0.5, 0.5)">320</text><text fill="none" stroke="rgb(0,0,0)" font-family="helvetica" font-size="11px" font-style="normal" font-weight="normal" text-decoration="normal" x="371.57927227020264" y="274.89013671875" text-anchor="start" dominant-baseline="alphabetic" transform="matrix(1, 0, 0, 1, 0.5, 0.5)" stroke-opacity="0" stroke-linejoin="bevel" stroke-miterlimit="10">320</text><text fill="#444444" stroke="none" font-family="helvetica" font-size="13px" font-style="italic" font-weight="normal" text-decoration="normal" x="163.43333435058594" y="293.89013671875" text-anchor="start" dominant-baseline="alphabetic" transform="matrix(1, 0, 0, 1, 0.5, 0.5)">SOLAR_LONGITUDE</text><text fill="none" stroke="rgb(0,0,0)" font-family="helvetica" font-size="13px" font-style="italic" font-weight="normal" text-decoration="normal" x="163.43333435058594" y="293.89013671875" text-anchor="start" dominant-baseline="alphabetic" transform="matrix(1, 0, 0, 1, 0.5, 0.5)" stroke-opacity="0" stroke-linejoin="bevel" stroke-miterlimit="10">SOLAR_LONGITUDE</text><path fill="none" stroke="black" paint-order="fill" d="M 51.5 256.5 L 51.5 26.5" stroke-linejoin="bevel" stroke-miterlimit="10"/><path fill="none" stroke="black" paint-order="fill" d="M 45.5 236.5 L 53.5 236.5 M 45.5 186.5 L 53.5 186.5 M 45.5 136.5 L 53.5 136.5 M 45.5 85.5 L 53.5 85.5 M 45.5 35.5 L 53.5 35.5" stroke-linejoin="bevel" stroke-miterlimit="10"/><path fill="none" stroke="black" paint-order="fill" d="M 47.5 246.5 L 51.5 246.5 M 47.5 236.5 L 51.5 236.5 M 47.5 226.5 L 51.5 226.5 M 47.5 216.5 L 51.5 216.5 M 47.5 206.5 L 51.5 206.5 M 47.5 196.5 L 51.5 196.5 M 47.5 186.5 L 51.5 186.5 M 47.5 176.5 L 51.5 176.5 M 47.5 166.5 L 51.5 166.5 M 47.5 156.5 L 51.5 156.5 M 47.5 146.5 L 51.5 146.5 M 47.5 136.5 L 51.5 136.5 M 47.5 126.5 L 51.5 126.5 M 47.5 116.5 L 51.5 116.5 M 47.5 105.5 L 51.5 105.5 M 47.5 95.5 L 51.5 95.5 M 47.5 85.5 L 51.5 85.5 M 47.5 75.5 L 51.5 75.5 M 47.5 65.5 L 51.5 65.5 M 47.5 55.5 L 51.5 55.5 M 47.5 45.5 L 51.5 45.5 M 47.5 35.5 L 51.5 35.5" stroke-linejoin="bevel" stroke-miterlimit="10"/><text fill="#444444" stroke="none" font-family="helvetica" font-size="11px" font-style="normal" font-weight="normal" text-decoration="normal" x="33.88333320617676" y="240.2406005859375" text-anchor="start" dominant-baseline="alphabetic" transform="matrix(1, 0, 0, 1, 0.5, 0.5)">1</text><text fill="none" stroke="rgb(0,0,0)" font-family="helvetica" font-size="11px" font-style="normal" font-weight="normal" text-decoration="normal" x="33.88333320617676" y="240.2406005859375" text-anchor="start" dominant-baseline="alphabetic" transform="matrix(1, 0, 0, 1, 0.5, 0.5)" stroke-opacity="0" stroke-linejoin="bevel" stroke-miterlimit="10">1</text><text fill="#444444" stroke="none" font-family="helvetica" font-size="11px" font-style="normal" font-weight="normal" text-decoration="normal" x="24.716666221618652" y="189.92630004882812" text-anchor="start" dominant-baseline="alphabetic" transform="matrix(1, 0, 0, 1, 0.5, 0.5)">1.5</text><text fill="none" stroke="rgb(0,0,0)" font-family="helvetica" font-size="11px" font-style="normal" font-weight="normal" text-decoration="normal" x="24.716666221618652" y="189.92630004882812" text-anchor="start" dominant-baseline="alphabetic" transform="matrix(1, 0, 0, 1, 0.5, 0.5)" stroke-opacity="0" stroke-linejoin="bevel" stroke-miterlimit="10">1.5</text><text fill="#444444" stroke="none" font-family="helvetica" font-size="11px" font-style="normal" font-weight="normal" text-decoration="normal" x="33.88333320617676" y="139.6120147705078" text-anchor="start" dominant-baseline="alphabetic" transform="matrix(1, 0, 0, 1, 0.5, 0.5)">2</text><text fill="none" stroke="rgb(0,0,0)" font-family="helvetica" font-size="11px" font-style="normal" font-weight="normal" text-decoration="normal" x="33.88333320617676" y="139.6120147705078" text-anchor="start" dominant-baseline="alphabetic" transform="matrix(1, 0, 0, 1, 0.5, 0.5)" stroke-opacity="0" stroke-linejoin="bevel" stroke-miterlimit="10">2</text><text fill="#444444" stroke="none" font-family="helvetica" font-size="11px" font-style="normal" font-weight="normal" text-decoration="normal" x="24.716666221618652" y="89.29772186279297" text-anchor="start" dominant-baseline="alphabetic" transform="matrix(1, 0, 0, 1, 0.5, 0.5)">2.5</text><text fill="none" stroke="rgb(0,0,0)" font-family="helvetica" font-size="11px" font-style="normal" font-weight="normal" text-decoration="normal" x="24.716666221618652" y="89.29772186279297" text-anchor="start" dominant-baseline="alphabetic" transform="matrix(1, 0, 0, 1, 0.5, 0.5)" stroke-opacity="0" stroke-linejoin="bevel" stroke-miterlimit="10">2.5</text><text fill="#444444" stroke="none" font-family="helvetica" font-size="11px" font-style="normal" font-weight="normal" text-decoration="normal" x="33.88333320617676" y="38.98343276977539" text-anchor="start" dominant-baseline="alphabetic" transform="matrix(1, 0, 0, 1, 0.5, 0.5)">3</text><text fill="none" stroke="rgb(0,0,0)" font-family="helvetica" font-size="11px" font-style="normal" font-weight="normal" text-decoration="normal" x="33.88333320617676" y="38.98343276977539" text-anchor="start" dominant-baseline="alphabetic" transform="matrix(1, 0, 0, 1, 0.5, 0.5)" stroke-opacity="0" stroke-linejoin="bevel" stroke-miterlimit="10">3</text><text fill="#444444" stroke="none" font-family="helvetica" font-size="13px" font-style="italic" font-weight="normal" text-decoration="normal" x="-21.591668128967285" y="138" text-anchor="start" dominant-baseline="alphabetic" transform="matrix(6.123233995736766e-17, -1, 1, 6.123233995736766e-17, -123.78333377838135, 158.21666622161865)">Homogeneity</text><text fill="none" stroke="rgb(0,0,0)" font-family="helvetica" font-size="13px" font-style="italic" font-weight="normal" text-decoration="normal" x="-21.591668128967285" y="138" text-anchor="start" dominant-baseline="alphabetic" transform="matrix(6.123233995736766e-17, -1, 1, 6.123233995736766e-17, -123.78333377838135, 158.21666622161865)" stroke-opacity="0" stroke-linejoin="bevel" stroke-miterlimit="10">Homogeneity</text><path fill="rgb(255,255,255)" stroke="rgb(229,229,229)" paint-order="fill" d="M 403.5 103.5 L 470.5 103.5 L 470.5 256.5 L 403.5 256.5 L 403.5 103.5 Z" fill-opacity="0.9490196078431372" stroke-opacity="0.5019607843137255" stroke-linejoin="bevel" stroke-miterlimit="10"/><text fill="#444444" stroke="none" font-family="helvetica" font-size="13px" font-style="italic" font-weight="normal" text-decoration="normal" x="414" y="125" text-anchor="start" dominant-baseline="alphabetic" transform="matrix(1, 0, 0, 1, 0.5, 0.5)">MY</text><text fill="none" stroke="rgb(0,0,0)" font-family="helvetica" font-size="13px" font-style="italic" font-weight="normal" text-decoration="normal" x="414" y="125" text-anchor="start" dominant-baseline="alphabetic" transform="matrix(1, 0, 0, 1, 0.5, 0.5)" stroke-opacity="0" stroke-linejoin="bevel" stroke-miterlimit="10">MY</text><g transform="matrix(1, 0, 0, 1, 414, 133)"><path fill="rgb(48,162,218)" stroke="rgb(48,162,218)" paint-order="fill" d="M 14.5 10.5 A 4 4 0 0 1 6.5 10.5 A 4 4 0 0 1 14.5 10.5" fill-opacity="1" stroke-opacity="1" stroke-linejoin="bevel" stroke-miterlimit="10"/></g><text fill="#444444" stroke="none" font-family="helvetica" font-size="8pt" font-style="normal" font-weight="normal" text-decoration="normal" x="439" y="146.81057739257812" text-anchor="start" dominant-baseline="alphabetic" transform="matrix(1, 0, 0, 1, 0.5, 0.5)">28</text><text fill="none" stroke="rgb(0,0,0)" font-family="helvetica" font-size="8pt" font-style="normal" font-weight="normal" text-decoration="normal" x="439" y="146.81057739257812" text-anchor="start" dominant-baseline="alphabetic" transform="matrix(1, 0, 0, 1, 0.5, 0.5)" stroke-opacity="0" stroke-linejoin="bevel" stroke-miterlimit="10">28</text><g transform="matrix(1, 0, 0, 1, 414, 156)"><path fill="rgb(252,79,48)" stroke="rgb(252,79,48)" paint-order="fill" d="M 14.5 10.5 A 4 4 0 0 1 6.5 10.5 A 4 4 0 0 1 14.5 10.5" fill-opacity="1" stroke-opacity="1" stroke-linejoin="bevel" stroke-miterlimit="10"/></g><text fill="#444444" stroke="none" font-family="helvetica" font-size="8pt" font-style="normal" font-weight="normal" text-decoration="normal" x="439" y="169.81057739257812" text-anchor="start" dominant-baseline="alphabetic" transform="matrix(1, 0, 0, 1, 0.5, 0.5)">29</text><text fill="none" stroke="rgb(0,0,0)" font-family="helvetica" font-size="8pt" font-style="normal" font-weight="normal" text-decoration="normal" x="439" y="169.81057739257812" text-anchor="start" dominant-baseline="alphabetic" transform="matrix(1, 0, 0, 1, 0.5, 0.5)" stroke-opacity="0" stroke-linejoin="bevel" stroke-miterlimit="10">29</text><g transform="matrix(1, 0, 0, 1, 414, 179)"><path fill="rgb(229,174,56)" stroke="rgb(229,174,56)" paint-order="fill" d="M 14.5 10.5 A 4 4 0 0 1 6.5 10.5 A 4 4 0 0 1 14.5 10.5" fill-opacity="1" stroke-opacity="1" stroke-linejoin="bevel" stroke-miterlimit="10"/></g><text fill="#444444" stroke="none" font-family="helvetica" font-size="8pt" font-style="normal" font-weight="normal" text-decoration="normal" x="439" y="192.81057739257812" text-anchor="start" dominant-baseline="alphabetic" transform="matrix(1, 0, 0, 1, 0.5, 0.5)">30</text><text fill="none" stroke="rgb(0,0,0)" font-family="helvetica" font-size="8pt" font-style="normal" font-weight="normal" text-decoration="normal" x="439" y="192.81057739257812" text-anchor="start" dominant-baseline="alphabetic" transform="matrix(1, 0, 0, 1, 0.5, 0.5)" stroke-opacity="0" stroke-linejoin="bevel" stroke-miterlimit="10">30</text><g transform="matrix(1, 0, 0, 1, 414, 202)"><path fill="rgb(109,144,79)" stroke="rgb(109,144,79)" paint-order="fill" d="M 14.5 10.5 A 4 4 0 0 1 6.5 10.5 A 4 4 0 0 1 14.5 10.5" fill-opacity="1" stroke-opacity="1" stroke-linejoin="bevel" stroke-miterlimit="10"/></g><text fill="#444444" stroke="none" font-family="helvetica" font-size="8pt" font-style="normal" font-weight="normal" text-decoration="normal" x="439" y="215.81057739257812" text-anchor="start" dominant-baseline="alphabetic" transform="matrix(1, 0, 0, 1, 0.5, 0.5)">31</text><text fill="none" stroke="rgb(0,0,0)" font-family="helvetica" font-size="8pt" font-style="normal" font-weight="normal" text-decoration="normal" x="439" y="215.81057739257812" text-anchor="start" dominant-baseline="alphabetic" transform="matrix(1, 0, 0, 1, 0.5, 0.5)" stroke-opacity="0" stroke-linejoin="bevel" stroke-miterlimit="10">31</text><g transform="matrix(1, 0, 0, 1, 414, 225)"><path fill="rgb(139,139,139)" stroke="rgb(139,139,139)" paint-order="fill" d="M 14.5 10.5 A 4 4 0 0 1 6.5 10.5 A 4 4 0 0 1 14.5 10.5" fill-opacity="1" stroke-opacity="1" stroke-linejoin="bevel" stroke-miterlimit="10"/></g><text fill="#444444" stroke="none" font-family="helvetica" font-size="8pt" font-style="normal" font-weight="normal" text-decoration="normal" x="439" y="238.81057739257812" text-anchor="start" dominant-baseline="alphabetic" transform="matrix(1, 0, 0, 1, 0.5, 0.5)">32</text><text fill="none" stroke="rgb(0,0,0)" font-family="helvetica" font-size="8pt" font-style="normal" font-weight="normal" text-decoration="normal" x="439" y="238.81057739257812" text-anchor="start" dominant-baseline="alphabetic" transform="matrix(1, 0, 0, 1, 0.5, 0.5)" stroke-opacity="0" stroke-linejoin="bevel" stroke-miterlimit="10">32</text><text fill="#444444" stroke="none" font-family="helvetica" font-size="13px" font-style="normal" font-weight="bold" text-decoration="normal" x="0" y="11" text-anchor="start" dominant-baseline="alphabetic" transform="matrix(1, 0, 0, 1, 51.5, 7.5)">Manhattan Classic Homogeneity Scatter Plot</text><text fill="none" stroke="rgb(0,0,0)" font-family="helvetica" font-size="13px" font-style="normal" font-weight="bold" text-decoration="normal" x="0" y="11" text-anchor="start" dominant-baseline="alphabetic" transform="matrix(1, 0, 0, 1, 51.5, 7.5)" stroke-opacity="0" stroke-linejoin="bevel" stroke-miterlimit="10">Manhattan Classic Homogeneity Scatter Plot</text></svg>